<?xml version="1.0" encoding="UTF-8" standalone="no"?>
<!-- Created with Inkscape (http://www.inkscape.org/) -->

<svg
   xmlns:dc="http://purl.org/dc/elements/1.1/"
   xmlns:cc="http://creativecommons.org/ns#"
   xmlns:rdf="http://www.w3.org/1999/02/22-rdf-syntax-ns#"
   xmlns:svg="http://www.w3.org/2000/svg"
   xmlns="http://www.w3.org/2000/svg"
   xmlns:sodipodi="http://sodipodi.sourceforge.net/DTD/sodipodi-0.dtd"
   xmlns:inkscape="http://www.inkscape.org/namespaces/inkscape"
   width="480"
   height="480"
   id="svg2"
   version="1.1"
   inkscape:version="0.48.3.1 r9886"
   sodipodi:docname="Logo Playing2.svg"
   inkscape:export-filename="/home/rafa/Escriptori/torios/logo.png"
   inkscape:export-xdpi="90"
   inkscape:export-ydpi="90">
  <defs
     id="defs4">
    <marker
       inkscape:stockid="DotL"
       orient="auto"
       refY="0"
       refX="0"
       id="DotL"
       style="overflow:visible">
      <path
         id="path3934"
         d="m -2.5,-1 c 0,2.76 -2.24,5 -5,5 -2.76,0 -5,-2.24 -5,-5 0,-2.76 2.24,-5 5,-5 2.76,0 5,2.24 5,5 z"
         style="fill-rule:evenodd;stroke:#000000;stroke-width:1pt"
         transform="matrix(0.8,0,0,0.8,5.92,0.8)"
         inkscape:connector-curvature="0" />
    </marker>
  </defs>
  <sodipodi:namedview
     id="base"
     pagecolor="#ffffff"
     bordercolor="#666666"
     borderopacity="1.0"
     inkscape:pageopacity="0.0"
     inkscape:pageshadow="2"
     inkscape:zoom="1"
     inkscape:cx="187.67152"
     inkscape:cy="258.73343"
     inkscape:document-units="px"
     inkscape:current-layer="capa1"
     showgrid="false"
     inkscape:window-width="1366"
     inkscape:window-height="708"
     inkscape:window-x="0"
     inkscape:window-y="36"
     inkscape:window-maximized="1"
     showborder="true"
     inkscape:showpageshadow="false"
     inkscape:snap-bbox="true"
     fit-margin-top="0"
     fit-margin-left="0"
     fit-margin-right="0"
     fit-margin-bottom="0" />
  <metadata
     id="metadata7">
    <rdf:RDF>
      <cc:Work
         rdf:about="">
        <dc:format>image/svg+xml</dc:format>
        <dc:type
           rdf:resource="http://purl.org/dc/dcmitype/StillImage" />
        <dc:title></dc:title>
      </cc:Work>
    </rdf:RDF>
  </metadata>
  <g
     inkscape:label="Capa 1"
     inkscape:groupmode="layer"
     id="capa1"
     transform="translate(-115,-56.362183)">
    <rect
       style="color:#000000;fill:#be0000;fill-opacity:1;fill-rule:nonzero;stroke:none;stroke-width:1;marker:none;visibility:visible;display:inline;overflow:visible;enable-background:accumulate"
       id="rect3103"
       width="88"
       height="88"
       x="160"
       y="245.36218"
       ry="12.692307" />
    <g
       id="g4323"
       inkscape:export-filename="/home/rafa/Escriptori/torios/g3096.png"
       inkscape:export-xdpi="90"
       inkscape:export-ydpi="90">
      <path
         sodipodi:nodetypes="cc"
         inkscape:connector-curvature="0"
         id="path3077"
         d="m 1510.3802,470.67832 0,-149.02244"
         style="color:#000000;fill:none;stroke:#000000;stroke-width:1;stroke-miterlimit:4;stroke-opacity:1;stroke-dasharray:1.00000003, 1.00000003;stroke-dashoffset:0.2;marker:none;visibility:visible;display:inline;overflow:visible;enable-background:accumulate" />
      <path
         sodipodi:nodetypes="cc"
         style="color:#000000;fill:none;stroke:#000000;stroke-width:1;stroke-miterlimit:4;stroke-opacity:1;stroke-dasharray:1.00000002, 1.00000002;stroke-dashoffset:0.2;marker:none;visibility:visible;display:inline;overflow:visible;enable-background:accumulate"
         d="m 1339.0354,338.18437 256.6652,0"
         id="path3849"
         inkscape:connector-curvature="0" />
      <path
         style="color:#000000;fill:none;stroke:#000000;stroke-width:1;stroke-miterlimit:4;stroke-opacity:1;stroke-dasharray:1.00000003, 1.00000003;stroke-dashoffset:0.2;marker:none;visibility:visible;display:inline;overflow:visible;enable-background:accumulate"
         d="m 1435.4269,470.67832 0,-149.02244"
         id="path3853"
         inkscape:connector-curvature="0"
         sodipodi:nodetypes="cc" />
      <path
         inkscape:connector-curvature="0"
         id="path3855"
         d="m 1339.0354,522.03213 256.6652,0"
         style="color:#000000;fill:none;stroke:#000000;stroke-width:1;stroke-miterlimit:4;stroke-opacity:1;stroke-dasharray:1.00000002, 1.00000002;stroke-dashoffset:0.2;marker:none;visibility:visible;display:inline;overflow:visible;enable-background:accumulate"
         sodipodi:nodetypes="cc" />
      <path
         sodipodi:nodetypes="cc"
         style="color:#000000;fill:none;stroke:#000000;stroke-width:1;stroke-miterlimit:4;stroke-opacity:1;stroke-dasharray:1.00000002, 1.00000002;stroke-dashoffset:0.2;marker:none;visibility:visible;display:inline;overflow:visible;enable-background:accumulate"
         d="m 1339.0354,468.29201 256.6652,0"
         id="path3857"
         inkscape:connector-curvature="0" />
      <path
         inkscape:connector-curvature="0"
         id="path4317"
         d="m 1339.0354,565.87275 256.6652,0"
         style="color:#000000;fill:none;stroke:#000000;stroke-width:1;stroke-miterlimit:4;stroke-opacity:1;stroke-dasharray:1.00000002, 1.00000002;stroke-dashoffset:0.2;marker:none;visibility:visible;display:inline;overflow:visible;enable-background:accumulate"
         sodipodi:nodetypes="cc" />
      <path
         sodipodi:nodetypes="cc"
         style="color:#000000;fill:none;stroke:#000000;stroke-width:1;stroke-miterlimit:4;stroke-opacity:1;stroke-dasharray:1.00000002, 1.00000002;stroke-dashoffset:0.2;marker:none;visibility:visible;display:inline;overflow:visible;enable-background:accumulate"
         d="m 1351.9883,582.48248 0,-256.6652"
         id="path4319"
         inkscape:connector-curvature="0" />
      <path
         inkscape:connector-curvature="0"
         id="path4321"
         d="m 1579.6767,582.48248 0,-256.6652"
         style="color:#000000;fill:none;stroke:#000000;stroke-width:1;stroke-miterlimit:4;stroke-opacity:1;stroke-dasharray:1.00000002, 1.00000002;stroke-dashoffset:0.2;marker:none;visibility:visible;display:inline;overflow:visible;enable-background:accumulate"
         sodipodi:nodetypes="cc" />
    </g>
    <path
       inkscape:connector-curvature="0"
       id="path3021"
       d="m 1162.8592,182.53614 0,-0.34782 -13.1174,0.22397 -13.1173,0.22401 0,-0.41742 c 0,-0.41327 -0.01,-0.41736 -0.7361,-0.40491 -0.6961,0.0122 -0.7363,-0.007 -0.7363,-0.33524 l 0,-0.34789 -3.2124,0.0547 -3.2124,0.0547 0,0.34788 c 0,0.27827 -0.067,0.34898 -0.3346,0.35352 -0.2826,0.006 -0.3346,0.0707 -0.3346,0.42313 0,0.3525 -0.052,0.41834 -0.3347,0.4232 -0.2825,0.006 -0.3346,-0.0593 -0.3346,-0.41178 0,-0.4132 -0.01,-0.4173 -0.7361,-0.40485 -0.7288,0.0127 -0.7363,0.0174 -0.7363,0.42999 l 0,0.41748 -1.74,0.0294 -1.74,0.0294 0,-0.41742 0,-0.41742 -1.4055,0.0248 -1.4054,0.0248 0,0.41742 0,0.41742 -1.807,0.0305 -1.807,0.0305 0,-0.41742 c 0,-0.41321 -0.01,-0.4173 -0.7361,-0.40486 -0.7288,0.0127 -0.7362,0.0174 -0.7362,0.43 l 0,0.4174 -2.0747,0.0358 -2.0747,0.0352 0,-0.41749 0,-0.4174 -1.0708,0.0184 -1.0708,0.0185 0,0.41742 c 0,0.35249 -0.052,0.41834 -0.3346,0.42319 -0.2826,0.006 -0.3347,-0.0592 -0.3347,-0.4117 l 0,-0.41749 -11.3772,0.19433 -11.3773,0.19427 0,-0.34789 0,-0.34788 -1.807,0.0305 -1.807,0.0311 0,-0.34782 c 0,-0.27838 -0.067,-0.34678 -0.3347,-0.34221 -0.329,0.006 -0.3346,-0.0127 -0.3346,-1.10741 0,-1.09456 -0.01,-1.11301 -0.3346,-1.10736 l -0.3346,0.006 0,-25.8109 0,-25.81083 0.3346,-0.006 c 0.3291,-0.006 0.3346,-0.024 0.3346,-1.11884 0,-1.09459 -0.01,-1.11303 -0.3346,-1.10741 l -0.3346,0.006 0,-12.52281 0,-12.52275 0.3346,-0.006 c 0.2826,-0.005 0.3346,-0.0707 0.3346,-0.42315 0,-0.352495 -0.052,-0.416534 -0.3346,-0.411732 l -0.3346,0.0062 0,-5.496098 0,-5.496112 0.3346,-0.0055 0.3346,-0.0055 0,-1.460987 0,-1.460994 0.3346,-0.0055 c 0.3165,-0.0057 0.3347,-0.04753 0.3347,-0.771001 0,-0.757539 0.01,-0.765357 0.4016,-0.772138 0.339,-0.0057 0.4015,-0.06103 0.4015,-0.354703 0,-0.342062 0.018,-0.348165 1.0708,-0.366148 l 1.0708,-0.01827 0,-0.417423 c 0,-0.408142 0.015,-0.417681 0.6693,-0.428857 0.6246,-0.01062 0.6692,-0.03454 0.6692,-0.359286 0,-0.328877 0.04,-0.348543 0.7362,-0.360422 0.696,-0.01193 0.7361,-0.03158 0.7361,-0.360436 0,-0.32465 0.044,-0.348611 0.6693,-0.359273 0.6247,-0.01068 0.6693,0.0118 0.6693,0.336431 l 0,0.347839 16.6644,-0.284547 16.6643,-0.28454 0,-0.347865 c 0,-0.328876 0.04,-0.348542 0.7362,-0.360422 0.6961,-0.01193 0.7362,0.0067 0.7362,0.335281 l 0,0.347858 3.2124,-0.05488 3.2124,-0.05488 0,0.347851 c 0,0.278287 0.067,0.346722 0.3347,0.342145 0.2677,-0.0038 0.3346,-0.07529 0.3346,-0.353578 l 0,-0.347846 5.354,-0.09146 5.354,-0.09145 0,0.347858 0,0.347853 3.5471,-0.06053 3.5469,-0.06053 0,0.417417 c 0,0.408143 0.015,0.417172 0.6694,0.405995 0.6544,-0.01125 0.6692,-0.02072 0.6692,-0.428845 l 0,-0.417423 1.0707,-0.01827 c 1.053,-0.0179 1.0709,-0.02405 1.0709,-0.366142 l 0,-0.34784 3.2124,-0.05488 3.2125,-0.05488 0,0.347859 0,0.347864 3.1454,-0.05375 3.1455,-0.05375 0,0.417429 c 0,0.37104 0.045,0.416651 0.4015,0.41056 0.3571,-0.0057 0.4016,-0.05325 0.4016,-0.424267 l 0,-0.417443 3.8817,-0.06633 3.8817,-0.06623 0,0.417412 c 0,0.413216 0.01,0.417304 0.7361,0.404858 0.696,-0.01193 0.7362,0.0067 0.7362,0.335288 0,0.324656 0.045,0.347085 0.6693,0.336424 0.6246,-0.01062 0.6693,-0.03454 0.6693,-0.359286 0,-0.32887 0.04,-0.348536 0.7361,-0.360423 0.696,-0.01193 0.7362,0.0067 0.7362,0.335288 0,0.324657 0.044,0.347099 0.6692,0.33643 0.6247,-0.01062 0.6692,0.01187 0.6692,0.336412 0,0.293757 0.063,0.346802 0.4016,0.341007 0.357,-0.0057 0.4016,0.03956 0.4016,0.410567 0,0.352492 0.052,0.416537 0.3346,0.411715 0.2678,-0.0038 0.3346,0.06383 0.3346,0.342151 0,0.278279 0.067,0.346696 0.3346,0.342131 0.3165,-0.0057 0.3347,0.03598 0.3347,0.759574 0,0.75754 0,0.765208 0.4016,0.758416 l 0.4016,-0.0068 0,1.80885 0,1.808845 0.3345,-0.0055 c 0.329,-0.0055 0.3346,0.01293 0.3346,1.107426 0,1.094586 -0.01,1.113225 -0.3346,1.118841 l -0.3345,0.0062 0,2.921987 0,2.921982 0.3345,-0.0062 0.3346,-0.0062 0,2.22626 0,2.226273 -0.3346,0.006 -0.3345,0.006 0,1.87839 0,1.87845 0.3345,-0.006 c 0.2677,-0.004 0.3346,0.0638 0.3346,0.34215 0,0.27826 -0.067,0.34899 -0.3346,0.35356 -0.3164,0.006 -0.3345,0.0475 -0.3345,0.77099 0,0.75754 0,0.76534 -0.4016,0.77213 l -0.4016,0.007 0,1.461 0,1.46099 0.4016,-0.007 0.4016,-0.007 0,1.11311 c 0,1.09461 0.01,1.11307 0.3345,1.10744 l 0.3346,-0.006 0,5.14825 0,5.14827 0.3346,-0.006 c 0.3124,-0.006 0.3347,0.0407 0.3347,0.68998 0,0.64934 -0.022,0.69608 -0.3347,0.70142 l -0.3346,0.006 0,22.88887 0,22.88884 -0.3346,0.006 -0.3345,0.006 0,2.57412 0,2.57406 -0.4016,0.007 c -0.3976,0.007 -0.4016,0.0151 -0.4016,0.77223 0,0.72349 -0.018,0.76557 -0.3347,0.771 -0.3122,0.006 -0.3346,0.0519 -0.3346,0.70135 0,0.64939 -0.022,0.6961 -0.3346,0.70146 -0.2826,0.006 -0.3346,0.0706 -0.3346,0.42313 0,0.41315 -0.01,0.41759 -0.7362,0.42999 l -0.7362,0.0127 0,0.6957 0,0.69571 -0.7361,0.0127 c -0.7288,0.0127 -0.7362,0.0174 -0.7362,0.43 0,0.35249 -0.052,0.41828 -0.3347,0.42313 -0.2677,0.006 -0.3345,0.0753 -0.3345,0.35357 l 0,0.34783 -1.7402,0.0294 -1.74,0.03 0,-0.34787 c 0,-0.32885 -0.04,-0.34719 -0.7363,-0.33531 -0.696,0.0122 -0.7361,0.0311 -0.7361,0.36045 l 0,0.34786 -2.8108,0.0478 -2.8109,0.0478 0,-0.34788 c 0,-0.29368 -0.063,-0.34678 -0.4016,-0.34101 -0.3391,0.006 -0.4015,0.061 -0.4015,0.35467 0,0.32477 -0.044,0.3487 -0.6692,0.35936 -0.6247,0.0104 -0.6693,-0.0116 -0.6693,-0.3364 z"
       style="color:#000000;fill:#cc0000;fill-opacity:1;fill-rule:nonzero;stroke:none;stroke-width:1;marker:none;visibility:visible;display:inline;overflow:visible;enable-background:accumulate"
       inkscape:export-filename="/home/rafa/Escriptori/torios/g3096.png"
       inkscape:export-xdpi="90"
       inkscape:export-ydpi="90" />
    <g
       transform="matrix(0.57662532,0,0,0.57662532,988.91813,-93.567597)"
       id="g3023"
       style="font-size:164.50650024px;font-style:normal;font-variant:normal;font-weight:normal;font-stretch:normal;text-align:start;line-height:125%;letter-spacing:0px;word-spacing:0px;writing-mode:lr-tb;text-anchor:start;fill:#ffffff;fill-opacity:1;stroke:none;font-family:DFGKoIn-W4;-inkscape-font-specification:DFGKoIn-W4"
       inkscape:export-filename="/home/rafa/Escriptori/torios/g3096.png"
       inkscape:export-xdpi="90"
       inkscape:export-ydpi="90">
      <path
         style="fill:#ffffff"
         inkscape:connector-curvature="0"
         id="path3025"
         d="m 316.57104,395.53399 c -1.6e-4,-2.99877 -3.42737,-4.49818 -10.28166,-4.49822 -3.10606,4e-5 -7.17588,0.10714 -12.20947,0.3213 -6.21196,0.21425 -10.33533,0.32135 -12.37012,0.3213 -1.49952,5e-5 -4.39123,5e-5 -8.67514,0 -3.85573,-0.10705 -6.90809,-0.10705 -9.1571,0 -3.32022,0.10715 -6.21193,0.3749 -8.67515,0.80325 -1.7137,0.32135 -4.06991,1.49946 -7.06864,3.53432 -2.03499,-0.64256 -3.6415,-1.17806 -4.81953,-1.60651 -3.96279,-1.07096 -9.21072,-1.60646 -15.74378,-1.6065 -0.32137,4e-5 -1.76722,0.0536 -4.33758,0.16065 -2.57047,0.10714 -4.76603,0.16069 -6.58668,0.16065 -8.9965,4e-5 -13.49472,-1.49936 -13.49468,-4.49823 -4e-5,-3.10586 2.40972,-4.65882 7.22929,-4.65887 2.03487,5e-5 4.39108,-0.53545 7.06864,-1.60651 2.78456,-1.17805 4.71237,-1.7671 5.78343,-1.76716 -6e-5,6e-5 1.1245,0.58911 3.37367,1.76716 2.24905,1.07106 4.28396,1.60656 6.10474,1.60651 22.27683,5e-5 34.53983,0.0536 36.78905,0.16065 3.53421,0.21425 7.65757,-0.2677 12.37012,-1.44586 6.1046,-1.49935 9.15697,-3.53426 9.1571,-6.10473 -1.3e-4,-0.96384 0.10697,-2.3026 0.3213,-4.01628 0.32117,-1.82064 0.48182,-3.15939 0.48195,-4.01627 -1.3e-4,-1.39223 -0.53563,-2.89164 -1.60651,-4.49822 -0.96403,-1.71353 -1.44598,-2.83809 -1.44586,-3.37367 0.85668,-0.42832 1.82059,-2.35613 2.89172,-5.78343 1.07087,-3.42713 1.60638,-5.78334 1.60651,-7.06864 -1.3e-4,-7.71114 -7.55072,-11.99516 -22.65178,-12.85207 -0.85691,10e-5 -2.24921,-0.16055 -4.17692,-0.48195 -1.92791,-0.4283 -3.37377,-0.6425 -4.33757,-0.64261 -0.64271,1.1e-4 -1.92791,0.10721 -3.85562,0.3213 -1.82081,0.10721 -3.21311,0.16076 -4.17693,0.16066 -4.06991,1e-4 -6.10482,-1.12445 -6.10473,-3.37367 -9e-5,-1.4993 0.80317,-2.62386 2.40976,-3.37367 1.60642,-0.85669 2.40968,-2.0348 2.40977,-3.53432 -9e-5,-1.82059 -1.1782,-3.26645 -3.53432,-4.33757 -1.9279,-0.96379 -3.85571,-1.44574 -5.78343,-1.44586 -3.2131,1.2e-4 -4.87316,2.08858 -4.98018,6.26538 -0.10718,3.21313 -0.32138,5.03384 -0.64261,5.46213 -3.21309,3.53443 -7.4971,5.46224 -12.85207,5.78343 -3.74858,0.96401 -5.89058,1.82082 -6.42603,2.57042 -1.60656,-1.60641 -4.98023,-2.40966 -10.12101,-2.40977 -10.28169,1.1e-4 -15.42251,5.72998 -15.42248,17.18965 -3e-5,0.96399 0.16062,4.60541 0.48195,10.92426 0.21417,4.60539 0.16062,8.24681 -0.16065,10.92426 -0.74973,6.10479 -1.12458,8.94295 -1.12456,8.51449 -2e-5,16.81484 0.69613,27.57843 2.08847,32.29083 1.07097,3.64144 4.17688,5.46215 9.31775,5.46213 1.39226,2e-5 3.42717,-0.16063 6.10473,-0.48195 2.78457,-0.42838 4.87303,-0.64259 6.26539,-0.64261 0.64254,2e-5 1.60645,-0.53548 2.89171,-1.6065 1.39225,-1.07099 2.83811,-1.60649 4.33757,-1.60651 2.57036,1.71363 7.33633,2.57043 14.29793,2.57041 0.64253,2e-5 1.60643,-0.16063 2.89172,-0.48195 1.39223,-0.32128 2.40968,-0.48193 3.05237,-0.48195 19.5993,-0.21418 29.6132,-0.32128 30.04171,-0.32131 2.3561,3e-5 3.96261,0.10713 4.81953,0.32131 0.21408,2e-5 0.37473,0.0536 0.48195,0.16065 1.07089,2e-5 2.51674,0.0536 4.33757,0.16065 1.82059,0.10712 3.1058,0.16067 3.85562,0.16065 1.17798,2e-5 2.24899,0.32132 3.21302,0.9639 1.07088,0.53553 1.87413,0.85683 2.40976,0.96391 5.9975,1.39232 8.99631,8.46096 8.99645,21.20592 -1.4e-4,4.39111 -2.3028,7.87188 -6.90798,10.4423 -3.64155,2.0349 -7.92557,3.213 -12.85207,3.53432 -3.10604,0.21419 -4.65899,1.76714 -4.65888,4.65888 -1.1e-4,3.21299 1.44574,4.8195 4.33757,4.81952 7.49692,-2e-5 14.1907,-2.14203 20.08136,-6.42603 6.64009,-4.71244 9.96021,-10.65652 9.96036,-17.83225 -1.5e-4,-11.78105 -1.01761,-19.38519 -3.05237,-22.81242 -1.71375,-2.9988 -6.42617,-5.30146 -14.13728,-6.90799 -5.67645,-1.17808 -11.19213,-1.76713 -16.54704,-1.76716 -2.14212,3e-5 -4.98028,0.0536 -8.51449,0.16065 -4.49833,0.10713 -7.28294,0.16068 -8.35385,0.16065 -1.3924,3e-5 -3.48086,-0.10707 -6.26538,-0.3213 -2.78471,-0.32127 -4.81962,-0.48192 -6.10474,-0.48195 -12.74504,3e-5 -21.31308,1.71363 -25.70414,5.14082 -0.85686,-0.10707 -2.35627,-0.80322 -4.49822,-2.08846 -1.82077,-0.96387 -4.44473,-1.39228 -7.87189,-1.2852 l -3.85563,0 c -2.78465,-1.39228 -4.17696,-2.94524 -4.17692,-4.65888 -4e-5,-3.64138 5.40854,-5.46209 16.22574,-5.46213 0.85675,4e-5 2.1955,0.16069 4.01627,0.48195 1.82065,0.32134 3.15941,0.48199 4.01627,0.48196 0.85674,3e-5 2.14195,-0.21417 3.85563,-0.64261 1.71353,-0.42836 2.99874,-0.64256 3.85562,-0.6426 0.42833,4e-5 1.12448,0.10714 2.08846,0.3213 0.96383,0.10714 1.65998,0.16069 2.08846,0.16065 1.28513,4e-5 2.99874,-0.42836 5.14083,-1.28521 2.14193,-0.96386 3.69488,-1.49936 4.65887,-1.6065 5.46204,2.03495 9.47831,3.0524 12.04882,3.05236 1.28511,4e-5 3.32002,-0.0535 6.10473,-0.16065 2.78451,-0.10706 4.81942,-0.16061 6.10474,-0.16065 1.28509,4e-5 3.05225,-0.26771 5.30147,-0.80325 2.249,-0.53547 3.96261,-0.80322 5.14083,-0.80326 2.89159,4e-5 7.17561,0.16069 12.85207,0.48195 5.7833,0.21424 10.12086,0.32135 13.01272,0.32131 5.03358,4e-5 7.55044,-1.55292 7.5506,-4.65888 m -32.45148,51.56893 c -1.2e-4,-2.57042 -0.91048,-5.08728 -2.73107,-7.55059 -1.82082,-2.03491 -3.64153,-4.06982 -5.46213,-6.10473 -0.21431,-0.9639 -0.32141,-1.44585 -0.3213,-1.44586 -1.1e-4,-2.4633 -0.10721,-4.01626 -0.3213,-4.65888 -0.53562,-1.60649 -1.87437,-2.40974 -4.01627,-2.40976 l -2.57042,0 c -2.14211,2e-5 -3.64152,0.37487 -4.49822,1.12456 -0.85691,0.64261 -1.28531,2.03492 -1.28521,4.17692 -10e-5,1.07101 1.07091,2.67752 3.21302,4.81953 2.46321,2.67751 3.90906,4.33757 4.33757,4.98017 1.4993,3.74852 2.46321,6.53313 2.89172,8.35385 0.21409,0.74969 0.91024,1.4994 2.08846,2.24911 1.17799,0.74969 2.1419,1.12455 2.89172,1.12456 3.8555,-10e-6 5.78331,-1.55297 5.78343,-4.65888 m -25.38284,6.26539 c -10e-5,-2.99883 -1.76726,-6.6938 -5.30148,-11.08491 -3.53441,-4.49823 -5.30156,-7.01509 -5.30148,-7.5506 -8e-5,-0.42839 0.16057,-1.12455 0.48195,-2.08846 0.32122,-1.07099 0.48187,-1.8207 0.48196,-2.24911 -9e-5,-1.07099 -0.91044,-2.08845 -2.73107,-3.05237 -1.71369,-1.07099 -3.15955,-1.60649 -4.33757,-1.6065 -4.2841,1e-5 -6.42611,1.92782 -6.42604,5.78343 -7e-5,1.71361 0.85673,3.10592 2.57042,4.17692 2.35613,1.60651 3.69489,2.57042 4.01627,2.89172 0.74962,0.9639 1.60643,3.26656 2.57041,6.90798 0.96382,3.64141 1.87418,6.21183 2.73107,7.71125 1.49932,2.57039 3.53423,3.8556 6.10473,3.85562 0.74961,-2e-5 1.76707,-0.48197 3.05237,-1.44586 1.39221,-0.85682 2.08836,-1.60652 2.08846,-2.24911 m -30.20237,-2.08846 c -6e-5,-1.17812 -1.98142,-4.81954 -5.94408,-10.92426 0.10704,-0.85681 0.16059,-1.71361 0.16065,-2.57042 -6e-5,-2.99881 -0.64266,-5.46212 -1.92781,-7.38994 -1.60656,-2.2491 -3.80212,-3.37365 -6.58668,-3.37367 -0.96396,2e-5 -1.92787,0.53552 -2.89172,1.60651 -0.96395,1.07102 -1.44591,2.14202 -1.44586,3.21302 -5e-5,1.60651 1.17806,3.69497 3.53432,6.26538 2.46326,2.46332 3.69492,4.81953 3.69497,7.06864 -5e-5,4.17692 0.1606,7.06863 0.48195,8.67515 0.85675,3.5343 2.67746,5.30146 5.46213,5.30148 3.64136,-2e-5 5.46207,-2.62398 5.46213,-7.87189 m -31.00562,-16.38639 c -3e-5,-1.82071 -0.58908,-3.74852 -1.76716,-5.78344 -1.17813,-2.03489 -2.57044,-3.05235 -4.17692,-3.05236 -1.49943,10e-6 -3.15949,0.53551 -4.98018,1.60651 -0.96392,0.53551 -1.60653,2.14202 -1.92781,4.81952 -0.42842,3.21302 -0.80327,5.19438 -1.12455,5.94409 -0.85683,1.7136 -3.69499,4.39112 -8.5145,8.03254 -4.17693,3.10591 -6.26539,5.62277 -6.26538,7.55059 -1e-5,4.1769 1.6065,6.26536 4.81952,6.26538 2.4633,-2e-5 5.30147,-2.03492 8.5145,-6.10473 0.42838,-0.53552 2.14199,-3.48078 5.14083,-8.8358 1.71358,-2.78462 4.23044,-5.03373 7.55059,-6.74733 0.85677,-0.4284 1.76712,-1.66006 2.73106,-3.69497 m 87.39408,-74.38136 c -1.92793,2.24919 -2.89183,4.12345 -2.89171,5.62278 -1.2e-4,2.46338 -0.16077,3.90924 -0.48196,4.33757 -1.71372,2.46338 -7.06875,3.90924 -16.06508,4.33758 -5.24803,6e-5 -10.49595,6e-5 -15.74379,0 l -17.6716,0 c -1.39237,6e-5 -3.21308,0.58911 -5.46213,1.76716 -2.14207,1.07106 -3.26663,1.60657 -3.37367,1.60651 -1.17816,-0.74965 -5.08733,-1.9813 -11.72751,-3.69497 -4.92667,-1.28515 -7.38998,-2.99875 -7.38994,-5.14083 -4e-5,-1.07094 1.01741,-2.19549 3.05237,-3.37367 2.03486,-1.28513 3.64137,-1.92774 4.81952,-1.92781 6.53308,7e-5 12.04876,-0.91028 16.54704,-2.73107 0.32124,8e-5 1.44579,0.58913 3.37367,1.76716 2.03484,1.07108 3.53425,1.60659 4.49823,1.60651 3.10584,8e-5 7.65761,-0.0535 13.65532,-0.16065 1.49932,8e-5 3.64133,0.16073 6.42604,0.48195 2.78451,0.32138 4.87297,0.48203 6.26538,0.48196 1.28511,7e-5 3.32002,-0.58898 6.10473,-1.76716 2.78451,-1.17803 4.17682,-2.24904 4.17693,-3.21302 -1.1e-4,-1.28513 -1.28532,-2.51678 -3.85562,-3.69497 -2.57052,-1.28512 -4.60543,-1.92773 -6.10474,-1.92781 l -26.34674,0.48195 c -0.21428,8e-5 -1.28528,0.53559 -3.21302,1.60651 -1.82078,1.07109 -3.42729,1.60659 -4.81953,1.60651 -0.42846,8e-5 -1.44592,-0.42832 -3.05236,-1.28521 -1.60657,-0.85672 -2.89178,-1.28512 -3.85562,-1.28521 -0.96397,9e-5 -2.30272,-0.10701 -4.01628,-0.3213 -1.60656,-0.32122 -2.78466,-0.48187 -3.53431,-0.48195 -4.06987,8e-5 -6.47964,-0.0535 -7.22929,-0.16065 -2.99886,-0.53542 -4.49827,-2.03483 -4.49823,-4.49823 -4e-5,-2.14192 2.30262,-4.33748 6.90799,-6.58668 4.17687,-2.03482 7.55054,-3.05227 10.121,-3.05237 0.96385,10e-5 2.46326,0.37495 4.49823,1.12456 2.14195,0.7498 3.6949,1.12465 4.65887,1.12455 0.96384,10e-5 2.1955,0.0536 3.69497,0.16065 1.60644,10e-5 2.8381,10e-5 3.69497,0 1.49934,10e-5 3.74845,-0.26765 6.74734,-0.80325 3.10584,-0.5354 5.4085,-0.80316 6.90799,-0.80325 19.278,9e-5 29.55964,1.98145 30.84497,5.94408 0.53538,2.1421 1.12444,4.33766 1.76716,6.58668 0.64248,2.2492 1.49928,4.33766 2.57041,6.26539" />
    </g>
    <text
       xml:space="preserve"
       style="font-size:87.08556366px;font-style:normal;font-variant:normal;font-weight:normal;font-stretch:normal;text-align:start;line-height:125%;letter-spacing:0px;word-spacing:0px;writing-mode:lr-tb;text-anchor:start;fill:#4d4d4d;fill-opacity:1;stroke:none;font-family:Sans;-inkscape-font-specification:Sans"
       x="1000.5914"
       y="272.39883"
       id="text3027"
       sodipodi:linespacing="125%"
       inkscape:export-filename="/home/rafa/Escriptori/torios/g3096.png"
       inkscape:export-xdpi="90"
       inkscape:export-ydpi="90"><tspan
         sodipodi:role="line"
         id="tspan3030"
         x="1000.5914"
         y="272.39883"
         style="font-size:87.08556366px;font-style:normal;font-variant:normal;font-weight:normal;font-stretch:normal;text-align:start;line-height:125%;writing-mode:lr-tb;text-anchor:start;font-family:NanumGothic;-inkscape-font-specification:NanumGothic"><tspan
   style="font-weight:bold"
   id="tspan3043">Tori</tspan>OS</tspan></text>
    <text
       sodipodi:linespacing="125%"
       id="text3052"
       y="549.91986"
       x="1000.5914"
       style="font-size:87.08556366px;font-style:normal;font-variant:normal;font-weight:normal;font-stretch:normal;text-align:start;line-height:125%;letter-spacing:0px;word-spacing:0px;writing-mode:lr-tb;text-anchor:start;fill:#4d4d4d;fill-opacity:1;stroke:none;font-family:Sans;-inkscape-font-specification:Sans"
       xml:space="preserve"
       inkscape:export-filename="/home/rafa/Escriptori/torios/g3096.png"
       inkscape:export-xdpi="90"
       inkscape:export-ydpi="90"><tspan
         style="font-size:87.08556366px;font-style:normal;font-variant:normal;font-weight:normal;font-stretch:normal;text-align:start;line-height:125%;writing-mode:lr-tb;text-anchor:start;font-family:NanumGothic;-inkscape-font-specification:NanumGothic"
         y="549.91986"
         x="1000.5914"
         id="tspan3054"
         sodipodi:role="line"><tspan
   id="tspan3056"
   style="font-weight:bold">Tori</tspan>OS</tspan></text>
    <path
       transform="matrix(0.81077741,0,0,0.81077741,977.56744,-120.6749)"
       d="m 268.57142,660.93359 c 0,40.23789 -32.61925,72.85714 -72.85714,72.85714 -40.23789,0 -72.85714,-32.61925 -72.85714,-72.85714 0,-40.23788 32.61925,-72.85714 72.85714,-72.85714 40.23789,0 72.85714,32.61926 72.85714,72.85714 z"
       sodipodi:ry="72.85714"
       sodipodi:rx="72.85714"
       sodipodi:cy="660.93359"
       sodipodi:cx="195.71428"
       id="path3058"
       style="color:#000000;fill:#cc0000;fill-opacity:1;fill-rule:nonzero;stroke:none;stroke-width:1;marker:none;visibility:visible;display:inline;overflow:visible;enable-background:accumulate"
       sodipodi:type="arc"
       inkscape:export-filename="/home/rafa/Escriptori/torios/g3096.png"
       inkscape:export-xdpi="90"
       inkscape:export-ydpi="90" />
    <g
       transform="matrix(0.58224603,0,0,0.58224603,1025.9806,106.30075)"
       id="g3060"
       style="font-size:164.50650024px;font-style:normal;font-variant:normal;font-weight:100;font-stretch:normal;text-align:start;line-height:125%;letter-spacing:0px;word-spacing:0px;writing-mode:lr-tb;text-anchor:start;fill:#ffffff;fill-opacity:1;stroke:none;font-family:'魚石行書';-inkscape-font-specification:'魚石行書 Thin'"
       inkscape:export-filename="/home/rafa/Escriptori/torios/g3096.png"
       inkscape:export-xdpi="90"
       inkscape:export-ydpi="90">
      <path
         style="fill:#ffffff"
         inkscape:connector-curvature="0"
         id="path3062"
         d="m 145.0393,484.86895 c 7.45759,-4.93507 15.24422,-10.69279 23.35993,-17.27319 8.22525,-6.58011 13.48945,-12.11849 15.79262,-16.61515 2.63202,0.9872 4.55126,2.19358 5.75773,3.61914 1.31597,1.31621 1.97399,2.74193 1.97408,4.27717 -9e-5,5.26435 -5.86748,10.91241 -17.6022,16.94417 -11.62518,6.03203 -21.38589,9.04798 -29.28216,9.04786 m 33.88834,-2.63211 c 4.38677,-4.3867 8.60909,-8.11551 12.667,-11.18644 4.16741,-3.18032 8.9381,-4.77054 14.31207,-4.77069 3.61904,1.5e-4 6.85433,0.98718 9.70588,2.96112 1.0966,1.09685 1.64496,3.07093 1.64507,5.92223 -1.1e-4,6.03204 -2.46771,14.80571 -7.40279,26.32104 -4.9353,11.51556 -8.28026,18.15064 -10.0349,19.90529 8.6639,-2.74168 15.90218,-4.82543 21.71486,-6.25125 5.81244,-1.53529 11.29598,-2.30299 16.45065,-2.30309 2.19328,10e-5 4.22219,0.16461 6.08674,0.49352 1.97393,0.32911 3.7835,1.31615 5.42871,2.96112 -1.75488,1.42581 -3.50961,2.7967 -5.26421,4.11266 -14.14768,1.97417 -27.19852,4.05791 -39.15254,6.25125 -3.50957,0.87745 -8.71894,2.63218 -15.62812,5.26421 -6.90935,2.63218 -12.11872,4.38691 -15.62812,5.2642 l 0,5.09971 c 12.1734,-4.49644 22.3728,-7.78657 30.59821,-9.87039 8.22522,-2.08367 17.1634,-3.12555 26.81456,-3.12563 6.03177,8e-5 10.58312,1.53548 13.65404,4.60618 3.07065,3.07087 4.60604,6.74484 4.60618,11.02194 -1.4e-4,10.96715 -4.77083,23.30513 -14.31206,37.01396 -9.43183,13.59922 -18.58935,20.39882 -27.47259,20.39881 -2.41286,10e-6 -5.15463,-0.82253 -8.22532,-2.4676 -3.07088,-1.64505 -7.29321,-4.27715 -12.667,-7.89631 12.39272,2e-5 23.14047,-5.04484 32.24327,-15.1346 9.10257,-10.08969 14.91513,-18.97303 17.43769,-26.65005 0.65789,-2.85139 -1.15168,-5.09964 -5.42872,-6.74477 -4.27729,-1.645 -10.03501,-2.46753 -17.27318,-2.4676 -6.14168,7e-5 -12.33808,0.54843 -18.58923,1.64507 -6.25133,0.9871 -11.13169,2.13865 -14.64108,3.45464 -3.39987,1.20644 -5.48362,1.86446 -6.25125,1.97407 -0.76776,0.10974 -1.48062,0.16457 -2.13858,0.16451 -2.41283,6e-5 -4.49658,-0.65796 -6.25125,-1.97408 -1.75479,-1.42566 -2.63216,-2.74171 -2.6321,-3.94815 1.53533,-8.44459 2.5772,-14.75067 3.12562,-18.91825 0.65796,-4.16741 0.98698,-7.78655 0.98704,-10.85743 -6e-5,-3.83838 -0.32908,-7.67687 -0.98704,-11.51546 -0.54842,-3.94804 -1.59029,-8.44455 -3.12562,-13.48953 4.2771,1.2e-4 7.07371,1.64519 8.38983,4.9352 1.42565,3.29024 2.13851,11.24138 2.13858,23.85344 2.08368,-1.09662 5.2093,-2.35783 9.37687,-3.78365 4.27709,-1.42562 8.33491,-2.79651 12.17348,-4.11266 l 0.98704,-7.5673 c -2.85153,1.1e-4 -5.5933,0.49363 -8.22532,1.48056 -2.52252,0.98714 -5.09978,1.97418 -7.73181,2.96111 -2.08382,1.1e-4 -4.27724,-1.59012 -6.58026,-4.77069 7.12854,-3.50935 12.06373,-5.64794 14.80559,-6.41575 2.74169,-0.87725 5.64796,-1.31593 8.71884,-1.31605 l 2.4676,-13.16052 c -2.08384,1.3e-4 -5.15463,0.27431 -9.21237,0.82253 -4.0579,0.54849 -7.95122,1.15168 -11.67996,1.80957 m -5.0997,73.2054 c 3.29006,-1.64501 6.63502,-2.96106 10.0349,-3.94816 3.50939,-0.98698 6.79952,-1.4805 9.87039,-1.48056 3.94806,6e-5 7.01885,1.15161 9.21236,3.45464 2.30299,2.19347 3.45454,4.11271 3.45464,5.75773 -1e-4,2.30314 -2.85155,3.83853 -8.55434,4.60618 -5.70298,0.65807 -10.08981,1.20642 -13.16052,1.64506 -3.07086,0.43873 -5.26428,0.71291 -6.58026,0.82253 -1.31612,0.10972 -2.57734,0.16456 -3.78365,0.16451 -5.04493,5e-5 -9.59627,-0.82249 -13.65404,-2.4676 -4.05788,-1.75468 -6.63514,-3.72876 -7.7318,-5.92223 1.20633,-0.5483 2.57721,-0.87732 4.11266,-0.98704 1.64501,-0.21929 3.78359,-0.32896 6.41575,-0.32901 2.52237,5e-5 4.55129,-0.0548 6.08674,-0.16451 1.645,-0.21929 3.07072,-0.60313 4.27717,-1.15154 m -52.31307,10.36391 c 7.1286,4e-5 13.1605,-0.27414 18.09572,-0.82254 4.93516,-0.65798 8.49946,-1.26117 10.69292,-1.80957 -4e-5,2.96116 -1.69994,5.48359 -5.0997,7.5673 -3.39984,1.97412 -7.23832,2.96115 -11.51545,2.96112 -3.07082,3e-5 -5.75775,-0.65799 -8.06082,-1.97408 -2.19344,-1.31601 -3.56433,-3.29009 -4.11267,-5.92223 m 73.53441,-49.51646 -21.22134,5.0997 0,10.52842 20.89233,-7.89632 0.32901,-7.7318" />
    </g>
    <path
       sodipodi:type="arc"
       style="color:#000000;fill:#cc0000;fill-opacity:1;fill-rule:nonzero;stroke:none;stroke-width:1;marker:none;visibility:visible;display:inline;overflow:visible;enable-background:accumulate"
       id="path3082"
       sodipodi:cx="195.71428"
       sodipodi:cy="660.93359"
       sodipodi:rx="72.85714"
       sodipodi:ry="72.85714"
       d="m 268.57142,660.93359 c 0,40.23789 -32.61925,72.85714 -72.85714,72.85714 -40.23789,0 -72.85714,-32.61925 -72.85714,-72.85714 0,-40.23788 32.61925,-72.85714 72.85714,-72.85714 40.23789,0 72.85714,32.61926 72.85714,72.85714 z"
       transform="matrix(1.5315596,0,0,1.5315596,1167.0781,-559.45971)"
       inkscape:export-filename="/home/rafa/Escriptori/torios/g3096.png"
       inkscape:export-xdpi="90"
       inkscape:export-ydpi="90" />
    <g
       style="font-size:164.50650024px;font-style:normal;font-variant:normal;font-weight:100;font-stretch:normal;text-align:start;line-height:125%;letter-spacing:0px;word-spacing:0px;writing-mode:lr-tb;text-anchor:start;fill:#ffffff;fill-opacity:1;stroke:none;font-family:'魚石行書';-inkscape-font-specification:'魚石行書 Thin'"
       id="g3084"
       transform="matrix(0.63703245,0,0,0.63703245,1346.3952,76.357034)"
       inkscape:export-filename="/home/rafa/Escriptori/torios/g3096.png"
       inkscape:export-xdpi="90"
       inkscape:export-ydpi="90">
      <path
         d="m 145.0393,484.86895 c 7.45759,-4.93507 15.24422,-10.69279 23.35993,-17.27319 8.22525,-6.58011 13.48945,-12.11849 15.79262,-16.61515 2.63202,0.9872 4.55126,2.19358 5.75773,3.61914 1.31597,1.31621 1.97399,2.74193 1.97408,4.27717 -9e-5,5.26435 -5.86748,10.91241 -17.6022,16.94417 -11.62518,6.03203 -21.38589,9.04798 -29.28216,9.04786 m 33.88834,-2.63211 c 4.38677,-4.3867 8.60909,-8.11551 12.667,-11.18644 4.16741,-3.18032 8.9381,-4.77054 14.31207,-4.77069 3.61904,1.5e-4 6.85433,0.98718 9.70588,2.96112 1.0966,1.09685 1.64496,3.07093 1.64507,5.92223 -1.1e-4,6.03204 -2.46771,14.80571 -7.40279,26.32104 -4.9353,11.51556 -8.28026,18.15064 -10.0349,19.90529 8.6639,-2.74168 15.90218,-4.82543 21.71486,-6.25125 5.81244,-1.53529 11.29598,-2.30299 16.45065,-2.30309 2.19328,10e-5 4.22219,0.16461 6.08674,0.49352 1.97393,0.32911 3.7835,1.31615 5.42871,2.96112 -1.75488,1.42581 -3.50961,2.7967 -5.26421,4.11266 -14.14768,1.97417 -27.19852,4.05791 -39.15254,6.25125 -3.50957,0.87745 -8.71894,2.63218 -15.62812,5.26421 -6.90935,2.63218 -12.11872,4.38691 -15.62812,5.2642 l 0,5.09971 c 12.1734,-4.49644 22.3728,-7.78657 30.59821,-9.87039 8.22522,-2.08367 17.1634,-3.12555 26.81456,-3.12563 6.03177,8e-5 10.58312,1.53548 13.65404,4.60618 3.07065,3.07087 4.60604,6.74484 4.60618,11.02194 -1.4e-4,10.96715 -4.77083,23.30513 -14.31206,37.01396 -9.43183,13.59922 -18.58935,20.39882 -27.47259,20.39881 -2.41286,10e-6 -5.15463,-0.82253 -8.22532,-2.4676 -3.07088,-1.64505 -7.29321,-4.27715 -12.667,-7.89631 12.39272,2e-5 23.14047,-5.04484 32.24327,-15.1346 9.10257,-10.08969 14.91513,-18.97303 17.43769,-26.65005 0.65789,-2.85139 -1.15168,-5.09964 -5.42872,-6.74477 -4.27729,-1.645 -10.03501,-2.46753 -17.27318,-2.4676 -6.14168,7e-5 -12.33808,0.54843 -18.58923,1.64507 -6.25133,0.9871 -11.13169,2.13865 -14.64108,3.45464 -3.39987,1.20644 -5.48362,1.86446 -6.25125,1.97407 -0.76776,0.10974 -1.48062,0.16457 -2.13858,0.16451 -2.41283,6e-5 -4.49658,-0.65796 -6.25125,-1.97408 -1.75479,-1.42566 -2.63216,-2.74171 -2.6321,-3.94815 1.53533,-8.44459 2.5772,-14.75067 3.12562,-18.91825 0.65796,-4.16741 0.98698,-7.78655 0.98704,-10.85743 -6e-5,-3.83838 -0.32908,-7.67687 -0.98704,-11.51546 -0.54842,-3.94804 -1.59029,-8.44455 -3.12562,-13.48953 4.2771,1.2e-4 7.07371,1.64519 8.38983,4.9352 1.42565,3.29024 2.13851,11.24138 2.13858,23.85344 2.08368,-1.09662 5.2093,-2.35783 9.37687,-3.78365 4.27709,-1.42562 8.33491,-2.79651 12.17348,-4.11266 l 0.98704,-7.5673 c -2.85153,1.1e-4 -5.5933,0.49363 -8.22532,1.48056 -2.52252,0.98714 -5.09978,1.97418 -7.73181,2.96111 -2.08382,1.1e-4 -4.27724,-1.59012 -6.58026,-4.77069 7.12854,-3.50935 12.06373,-5.64794 14.80559,-6.41575 2.74169,-0.87725 5.64796,-1.31593 8.71884,-1.31605 l 2.4676,-13.16052 c -2.08384,1.3e-4 -5.15463,0.27431 -9.21237,0.82253 -4.0579,0.54849 -7.95122,1.15168 -11.67996,1.80957 m -5.0997,73.2054 c 3.29006,-1.64501 6.63502,-2.96106 10.0349,-3.94816 3.50939,-0.98698 6.79952,-1.4805 9.87039,-1.48056 3.94806,6e-5 7.01885,1.15161 9.21236,3.45464 2.30299,2.19347 3.45454,4.11271 3.45464,5.75773 -1e-4,2.30314 -2.85155,3.83853 -8.55434,4.60618 -5.70298,0.65807 -10.08981,1.20642 -13.16052,1.64506 -3.07086,0.43873 -5.26428,0.71291 -6.58026,0.82253 -1.31612,0.10972 -2.57734,0.16456 -3.78365,0.16451 -5.04493,5e-5 -9.59627,-0.82249 -13.65404,-2.4676 -4.05788,-1.75468 -6.63514,-3.72876 -7.7318,-5.92223 1.20633,-0.5483 2.57721,-0.87732 4.11266,-0.98704 1.64501,-0.21929 3.78359,-0.32896 6.41575,-0.32901 2.52237,5e-5 4.55129,-0.0548 6.08674,-0.16451 1.645,-0.21929 3.07072,-0.60313 4.27717,-1.15154 m -52.31307,10.36391 c 7.1286,4e-5 13.1605,-0.27414 18.09572,-0.82254 4.93516,-0.65798 8.49946,-1.26117 10.69292,-1.80957 -4e-5,2.96116 -1.69994,5.48359 -5.0997,7.5673 -3.39984,1.97412 -7.23832,2.96115 -11.51545,2.96112 -3.07082,3e-5 -5.75775,-0.65799 -8.06082,-1.97408 -2.19344,-1.31601 -3.56433,-3.29009 -4.11267,-5.92223 m 73.53441,-49.51646 -21.22134,5.0997 0,10.52842 20.89233,-7.89632 0.32901,-7.7318"
         id="path3086"
         inkscape:connector-curvature="0"
         style="fill:#ffffff" />
    </g>
    <text
       xml:space="preserve"
       style="font-size:56.10399246px;font-style:normal;font-variant:normal;font-weight:normal;font-stretch:normal;text-align:start;line-height:125%;letter-spacing:0px;word-spacing:0px;writing-mode:lr-tb;text-anchor:start;fill:#cccccc;fill-opacity:1;stroke:none;font-family:Sans;-inkscape-font-specification:Sans"
       x="1385.2537"
       y="512.21094"
       id="text3076"
       sodipodi:linespacing="125%"
       inkscape:export-filename="/home/rafa/Escriptori/torios/g3096.png"
       inkscape:export-xdpi="90"
       inkscape:export-ydpi="90"><tspan
         sodipodi:role="line"
         id="tspan3078"
         x="1385.2537"
         y="512.21094"
         style="font-size:56.10399246px;font-style:normal;font-variant:normal;font-weight:normal;font-stretch:normal;text-align:start;line-height:125%;writing-mode:lr-tb;text-anchor:start;fill:#cccccc;font-family:NanumGothic;-inkscape-font-specification:NanumGothic"><tspan
   style="font-weight:bold;fill:#cccccc"
   id="tspan3080">Tori</tspan>OS</tspan></text>
    <path
       style="color:#000000;fill:#cc0000;fill-opacity:1;fill-rule:nonzero;stroke:none;stroke-width:1;marker:none;visibility:visible;display:inline;overflow:visible;enable-background:accumulate"
       d="m 1523.0888,258.09319 0,-0.63304 -23.8745,0.40763 -23.8743,0.40772 0,-0.75974 c 0,-0.75216 -0.015,-0.75962 -1.3398,-0.73695 -1.2669,0.0222 -1.34,-0.0127 -1.34,-0.61016 l 0,-0.63317 -5.8468,0.0996 -5.8467,0.0996 0,0.63317 c 0,0.50646 -0.122,0.63516 -0.6091,0.64343 -0.5143,0.0112 -0.609,0.12861 -0.609,0.77011 0,0.64156 -0.095,0.7614 -0.6091,0.77024 -0.5143,0.0112 -0.609,-0.10793 -0.609,-0.74945 0,-0.75207 -0.015,-0.75951 -1.3399,-0.73685 -1.3264,0.0231 -1.3399,0.0317 -1.3399,0.78259 l 0,0.75985 -3.167,0.0536 -3.1669,0.0535 0,-0.75972 0,-0.75973 -2.558,0.0452 -2.5579,0.0452 0,0.75973 0,0.75973 -3.2888,0.0555 -3.2889,0.0555 0,-0.75973 c 0,-0.75207 -0.015,-0.7595 -1.3399,-0.73687 -1.3263,0.0231 -1.3399,0.0317 -1.3399,0.78264 l 0,0.75969 -3.7761,0.0651 -3.7759,0.064 0,-0.75985 0,-0.75969 -1.9491,0.0335 -1.9489,0.0336 0,0.75973 c 0,0.64154 -0.095,0.76139 -0.6089,0.77021 -0.5144,0.0112 -0.6092,-0.10769 -0.6092,-0.74931 l 0,-0.75985 -20.7072,0.35369 -20.7074,0.35357 0,-0.63317 0,-0.63316 -3.2888,0.0556 -3.2889,0.0566 0,-0.63306 c 0,-0.50668 -0.122,-0.63116 -0.609,-0.62284 -0.5988,0.0112 -0.609,-0.0231 -0.609,-2.01556 0,-1.99216 -0.012,-2.02573 -0.6091,-2.01546 l -0.609,0.0113 0,-46.97735 0,-46.97722 0.609,-0.0111 c 0.599,-0.0112 0.6091,-0.0437 0.6091,-2.03635 0,-1.99222 -0.012,-2.02578 -0.6091,-2.01555 l -0.609,0.0112 0,-22.79224 0,-22.79214 0.609,-0.0112 c 0.5144,-0.009 0.6091,-0.12862 0.6091,-0.77016 0,-0.64156 -0.095,-0.75811 -0.6091,-0.74937 l -0.609,0.0112 0,-10.00322 0,-10.003245 0.609,-0.01 0.6091,-0.01 0,-2.659081 0,-2.659094 0.609,-0.01 c 0.5759,-0.01 0.609,-0.08652 0.609,-1.403268 0,-1.378767 0.012,-1.392995 0.731,-1.405342 0.6171,-0.01033 0.7308,-0.111072 0.7308,-0.645574 0,-0.622578 0.033,-0.633686 1.9489,-0.666417 l 1.9489,-0.03324 0,-0.759732 c 0,-0.742844 0.027,-0.760205 1.2181,-0.780548 1.1368,-0.01929 1.218,-0.06286 1.218,-0.65392 0,-0.598574 0.074,-0.63437 1.34,-0.655992 1.2667,-0.02168 1.3399,-0.05746 1.3399,-0.656013 0,-0.590879 0.081,-0.634493 1.2179,-0.653899 1.137,-0.01943 1.2182,0.02148 1.2182,0.612324 l 0,0.633091 30.3302,-0.517894 30.3301,-0.517879 0,-0.633132 c 0,-0.598575 0.074,-0.63437 1.3399,-0.655993 1.2669,-0.02168 1.3399,0.01218 1.3399,0.610231 l 0,0.633125 5.8468,-0.09989 5.8468,-0.09988 0,0.633112 c 0,0.506497 0.122,0.631052 0.6091,0.622721 0.4872,-0.0068 0.609,-0.137032 0.609,-0.64353 l 0,-0.633104 9.7447,-0.166452 9.7445,-0.166439 0,0.633119 0,0.633118 6.4558,-0.11017 6.4557,-0.11017 0,0.759726 c 0,0.742843 0.027,0.759274 1.2183,0.738931 1.191,-0.02045 1.218,-0.03769 1.218,-0.78052 l 0,-0.759733 1.9488,-0.03324 c 1.9165,-0.03256 1.949,-0.04378 1.949,-0.666396 l 0,-0.633091 5.8467,-0.09988 5.847,-0.09989 0,0.633125 0,0.633132 5.7248,-0.09783 5.7251,-0.09783 0,0.759746 c 0,0.675316 0.082,0.75833 0.7307,0.747242 0.6499,-0.01033 0.7309,-0.09691 0.7309,-0.772189 l 0,-0.759773 7.065,-0.120725 7.0649,-0.12054 0,0.759719 c 0,0.752078 0.018,0.759514 1.3398,0.736865 1.2668,-0.02168 1.3398,0.01218 1.3398,0.610245 0,0.590893 0.082,0.631716 1.2182,0.61231 1.1368,-0.01929 1.2181,-0.06286 1.2181,-0.65392 0,-0.598568 0.072,-0.634356 1.3399,-0.655992 1.2668,-0.02168 1.3398,0.01217 1.3398,0.610244 0,0.590893 0.081,0.631737 1.2182,0.612317 1.1368,-0.01929 1.2179,0.02161 1.2179,0.61229 0,0.534659 0.1145,0.631203 0.7308,0.620655 0.6498,-0.01033 0.7309,0.07199 0.7309,0.747256 0,0.641559 0.095,0.758125 0.6092,0.749348 0.4873,-0.0068 0.6089,0.116169 0.6089,0.622735 0,0.506484 0.122,0.631005 0.609,0.622701 0.576,-0.01033 0.6092,0.06546 0.6092,1.382467 0,1.378767 0,1.392721 0.7308,1.38036 l 0.7309,-0.01245 0,3.292213 0,3.292206 0.6089,-0.01 c 0.5989,-0.01 0.609,0.02353 0.609,2.015578 0,1.992213 -0.018,2.026134 -0.609,2.036353 l -0.6089,0.01122 0,5.318196 0,5.318176 0.6089,-0.0112 0.609,-0.0112 0,4.05192 0,4.05196 -0.609,0.0112 -0.6089,0.0112 0,3.41878 0,3.4189 0.6089,-0.0112 c 0.4873,-0.007 0.609,0.11615 0.609,0.62272 0,0.50646 -0.1219,0.63519 -0.609,0.64351 -0.5758,0.0112 -0.6089,0.0865 -0.6089,1.40325 0,1.37876 0,1.39296 -0.7309,1.40531 l -0.7308,0.0127 0,2.65911 0,2.65908 0.7308,-0.0127 0.7309,-0.0127 0,2.02593 c 0,1.99226 0.019,2.02586 0.6089,2.01561 l 0.609,-0.0112 0,9.37013 0,9.37014 0.609,-0.0112 c 0.5686,-0.0111 0.6091,0.0741 0.6091,1.25581 0,1.18183 -0.04,1.26692 -0.6091,1.27663 l -0.609,0.0112 0,41.65909 0,41.65902 -0.609,0.0111 -0.6089,0.0112 0,4.68507 0,4.68493 -0.7309,0.0127 c -0.7236,0.0127 -0.7308,0.0274 -0.7308,1.4055 0,1.3168 -0.033,1.39339 -0.6092,1.40327 -0.5683,0.0112 -0.609,0.0944 -0.609,1.2765 0,1.18194 -0.04,1.26694 -0.6089,1.27671 -0.5145,0.0111 -0.6092,0.12843 -0.6092,0.77011 0,0.75196 -0.018,0.76003 -1.3399,0.78261 l -1.3397,0.0231 0,1.2662 0,1.26624 -1.3399,0.023 c -1.3264,0.0231 -1.34,0.0317 -1.34,0.78263 0,0.64155 -0.095,0.7613 -0.6091,0.77013 -0.4872,0.0111 -0.6089,0.13695 -0.6089,0.64352 l 0,0.63307 -3.1672,0.0535 -3.1668,0.0547 0,-0.63316 c 0,-0.59852 -0.072,-0.6319 -1.3402,-0.61028 -1.2666,0.0222 -1.3398,0.0566 -1.3398,0.65604 l 0,0.63313 -5.1158,0.087 -5.116,0.087 0,-0.63317 c 0,-0.5345 -0.1145,-0.63116 -0.7309,-0.62064 -0.6172,0.0112 -0.7307,0.11105 -0.7307,0.64552 0,0.59109 -0.081,0.63464 -1.2181,0.65405 -1.1369,0.0189 -1.218,-0.021 -1.218,-0.61227 z"
       id="path3088"
       inkscape:connector-curvature="0"
       inkscape:export-filename="/home/rafa/Escriptori/torios/g3096.png"
       inkscape:export-xdpi="90"
       inkscape:export-ydpi="90" />
    <text
       sodipodi:linespacing="125%"
       id="text3090"
       y="234.18181"
       x="1382.7815"
       style="font-size:56.10399246px;font-style:normal;font-variant:normal;font-weight:normal;font-stretch:normal;text-align:start;line-height:125%;letter-spacing:0px;word-spacing:0px;writing-mode:lr-tb;text-anchor:start;fill:#cccccc;fill-opacity:1;stroke:none;font-family:Sans;-inkscape-font-specification:Sans"
       xml:space="preserve"
       inkscape:export-filename="/home/rafa/Escriptori/torios/g3096.png"
       inkscape:export-xdpi="90"
       inkscape:export-ydpi="90"><tspan
         style="font-size:56.10399246px;font-style:normal;font-variant:normal;font-weight:normal;font-stretch:normal;text-align:start;line-height:125%;writing-mode:lr-tb;text-anchor:start;fill:#cccccc;font-family:NanumGothic;-inkscape-font-specification:NanumGothic"
         y="234.18181"
         x="1382.7815"
         id="tspan3092"
         sodipodi:role="line"><tspan
   id="tspan3094"
   style="font-weight:bold;fill:#cccccc">Tori</tspan>OS</tspan></text>
    <g
       style="font-size:164.50650024px;font-style:normal;font-variant:normal;font-weight:normal;font-stretch:normal;text-align:start;line-height:125%;letter-spacing:0px;word-spacing:0px;writing-mode:lr-tb;text-anchor:start;fill:#ffffff;fill-opacity:1;stroke:none;font-family:DFGKoIn-W4;-inkscape-font-specification:DFGKoIn-W4"
       id="g3096"
       transform="matrix(0.64272897,0,0,0.64272897,1309.8447,-120.16349)"
       inkscape:export-xdpi="90"
       inkscape:export-ydpi="90">
      <path
         d="m 316.57104,395.53399 c -1.6e-4,-2.99877 -3.42737,-4.49818 -10.28166,-4.49822 -3.10606,4e-5 -7.17588,0.10714 -12.20947,0.3213 -6.21196,0.21425 -10.33533,0.32135 -12.37012,0.3213 -1.49952,5e-5 -4.39123,5e-5 -8.67514,0 -3.85573,-0.10705 -6.90809,-0.10705 -9.1571,0 -3.32022,0.10715 -6.21193,0.3749 -8.67515,0.80325 -1.7137,0.32135 -4.06991,1.49946 -7.06864,3.53432 -2.03499,-0.64256 -3.6415,-1.17806 -4.81953,-1.60651 -3.96279,-1.07096 -9.21072,-1.60646 -15.74378,-1.6065 -0.32137,4e-5 -1.76722,0.0536 -4.33758,0.16065 -2.57047,0.10714 -4.76603,0.16069 -6.58668,0.16065 -8.9965,4e-5 -13.49472,-1.49936 -13.49468,-4.49823 -4e-5,-3.10586 2.40972,-4.65882 7.22929,-4.65887 2.03487,5e-5 4.39108,-0.53545 7.06864,-1.60651 2.78456,-1.17805 4.71237,-1.7671 5.78343,-1.76716 -6e-5,6e-5 1.1245,0.58911 3.37367,1.76716 2.24905,1.07106 4.28396,1.60656 6.10474,1.60651 22.27683,5e-5 34.53983,0.0536 36.78905,0.16065 3.53421,0.21425 7.65757,-0.2677 12.37012,-1.44586 6.1046,-1.49935 9.15697,-3.53426 9.1571,-6.10473 -1.3e-4,-0.96384 0.10697,-2.3026 0.3213,-4.01628 0.32117,-1.82064 0.48182,-3.15939 0.48195,-4.01627 -1.3e-4,-1.39223 -0.53563,-2.89164 -1.60651,-4.49822 -0.96403,-1.71353 -1.44598,-2.83809 -1.44586,-3.37367 0.85668,-0.42832 1.82059,-2.35613 2.89172,-5.78343 1.07087,-3.42713 1.60638,-5.78334 1.60651,-7.06864 -1.3e-4,-7.71114 -7.55072,-11.99516 -22.65178,-12.85207 -0.85691,10e-5 -2.24921,-0.16055 -4.17692,-0.48195 -1.92791,-0.4283 -3.37377,-0.6425 -4.33757,-0.64261 -0.64271,1.1e-4 -1.92791,0.10721 -3.85562,0.3213 -1.82081,0.10721 -3.21311,0.16076 -4.17693,0.16066 -4.06991,1e-4 -6.10482,-1.12445 -6.10473,-3.37367 -9e-5,-1.4993 0.80317,-2.62386 2.40976,-3.37367 1.60642,-0.85669 2.40968,-2.0348 2.40977,-3.53432 -9e-5,-1.82059 -1.1782,-3.26645 -3.53432,-4.33757 -1.9279,-0.96379 -3.85571,-1.44574 -5.78343,-1.44586 -3.2131,1.2e-4 -4.87316,2.08858 -4.98018,6.26538 -0.10718,3.21313 -0.32138,5.03384 -0.64261,5.46213 -3.21309,3.53443 -7.4971,5.46224 -12.85207,5.78343 -3.74858,0.96401 -5.89058,1.82082 -6.42603,2.57042 -1.60656,-1.60641 -4.98023,-2.40966 -10.12101,-2.40977 -10.28169,1.1e-4 -15.42251,5.72998 -15.42248,17.18965 -3e-5,0.96399 0.16062,4.60541 0.48195,10.92426 0.21417,4.60539 0.16062,8.24681 -0.16065,10.92426 -0.74973,6.10479 -1.12458,8.94295 -1.12456,8.51449 -2e-5,16.81484 0.69613,27.57843 2.08847,32.29083 1.07097,3.64144 4.17688,5.46215 9.31775,5.46213 1.39226,2e-5 3.42717,-0.16063 6.10473,-0.48195 2.78457,-0.42838 4.87303,-0.64259 6.26539,-0.64261 0.64254,2e-5 1.60645,-0.53548 2.89171,-1.6065 1.39225,-1.07099 2.83811,-1.60649 4.33757,-1.60651 2.57036,1.71363 7.33633,2.57043 14.29793,2.57041 0.64253,2e-5 1.60643,-0.16063 2.89172,-0.48195 1.39223,-0.32128 2.40968,-0.48193 3.05237,-0.48195 19.5993,-0.21418 29.6132,-0.32128 30.04171,-0.32131 2.3561,3e-5 3.96261,0.10713 4.81953,0.32131 0.21408,2e-5 0.37473,0.0536 0.48195,0.16065 1.07089,2e-5 2.51674,0.0536 4.33757,0.16065 1.82059,0.10712 3.1058,0.16067 3.85562,0.16065 1.17798,2e-5 2.24899,0.32132 3.21302,0.9639 1.07088,0.53553 1.87413,0.85683 2.40976,0.96391 5.9975,1.39232 8.99631,8.46096 8.99645,21.20592 -1.4e-4,4.39111 -2.3028,7.87188 -6.90798,10.4423 -3.64155,2.0349 -7.92557,3.213 -12.85207,3.53432 -3.10604,0.21419 -4.65899,1.76714 -4.65888,4.65888 -1.1e-4,3.21299 1.44574,4.8195 4.33757,4.81952 7.49692,-2e-5 14.1907,-2.14203 20.08136,-6.42603 6.64009,-4.71244 9.96021,-10.65652 9.96036,-17.83225 -1.5e-4,-11.78105 -1.01761,-19.38519 -3.05237,-22.81242 -1.71375,-2.9988 -6.42617,-5.30146 -14.13728,-6.90799 -5.67645,-1.17808 -11.19213,-1.76713 -16.54704,-1.76716 -2.14212,3e-5 -4.98028,0.0536 -8.51449,0.16065 -4.49833,0.10713 -7.28294,0.16068 -8.35385,0.16065 -1.3924,3e-5 -3.48086,-0.10707 -6.26538,-0.3213 -2.78471,-0.32127 -4.81962,-0.48192 -6.10474,-0.48195 -12.74504,3e-5 -21.31308,1.71363 -25.70414,5.14082 -0.85686,-0.10707 -2.35627,-0.80322 -4.49822,-2.08846 -1.82077,-0.96387 -4.44473,-1.39228 -7.87189,-1.2852 l -3.85563,0 c -2.78465,-1.39228 -4.17696,-2.94524 -4.17692,-4.65888 -4e-5,-3.64138 5.40854,-5.46209 16.22574,-5.46213 0.85675,4e-5 2.1955,0.16069 4.01627,0.48195 1.82065,0.32134 3.15941,0.48199 4.01627,0.48196 0.85674,3e-5 2.14195,-0.21417 3.85563,-0.64261 1.71353,-0.42836 2.99874,-0.64256 3.85562,-0.6426 0.42833,4e-5 1.12448,0.10714 2.08846,0.3213 0.96383,0.10714 1.65998,0.16069 2.08846,0.16065 1.28513,4e-5 2.99874,-0.42836 5.14083,-1.28521 2.14193,-0.96386 3.69488,-1.49936 4.65887,-1.6065 5.46204,2.03495 9.47831,3.0524 12.04882,3.05236 1.28511,4e-5 3.32002,-0.0535 6.10473,-0.16065 2.78451,-0.10706 4.81942,-0.16061 6.10474,-0.16065 1.28509,4e-5 3.05225,-0.26771 5.30147,-0.80325 2.249,-0.53547 3.96261,-0.80322 5.14083,-0.80326 2.89159,4e-5 7.17561,0.16069 12.85207,0.48195 5.7833,0.21424 10.12086,0.32135 13.01272,0.32131 5.03358,4e-5 7.55044,-1.55292 7.5506,-4.65888 m -32.45148,51.56893 c -1.2e-4,-2.57042 -0.91048,-5.08728 -2.73107,-7.55059 -1.82082,-2.03491 -3.64153,-4.06982 -5.46213,-6.10473 -0.21431,-0.9639 -0.32141,-1.44585 -0.3213,-1.44586 -1.1e-4,-2.4633 -0.10721,-4.01626 -0.3213,-4.65888 -0.53562,-1.60649 -1.87437,-2.40974 -4.01627,-2.40976 l -2.57042,0 c -2.14211,2e-5 -3.64152,0.37487 -4.49822,1.12456 -0.85691,0.64261 -1.28531,2.03492 -1.28521,4.17692 -10e-5,1.07101 1.07091,2.67752 3.21302,4.81953 2.46321,2.67751 3.90906,4.33757 4.33757,4.98017 1.4993,3.74852 2.46321,6.53313 2.89172,8.35385 0.21409,0.74969 0.91024,1.4994 2.08846,2.24911 1.17799,0.74969 2.1419,1.12455 2.89172,1.12456 3.8555,-10e-6 5.78331,-1.55297 5.78343,-4.65888 m -25.38284,6.26539 c -10e-5,-2.99883 -1.76726,-6.6938 -5.30148,-11.08491 -3.53441,-4.49823 -5.30156,-7.01509 -5.30148,-7.5506 -8e-5,-0.42839 0.16057,-1.12455 0.48195,-2.08846 0.32122,-1.07099 0.48187,-1.8207 0.48196,-2.24911 -9e-5,-1.07099 -0.91044,-2.08845 -2.73107,-3.05237 -1.71369,-1.07099 -3.15955,-1.60649 -4.33757,-1.6065 -4.2841,1e-5 -6.42611,1.92782 -6.42604,5.78343 -7e-5,1.71361 0.85673,3.10592 2.57042,4.17692 2.35613,1.60651 3.69489,2.57042 4.01627,2.89172 0.74962,0.9639 1.60643,3.26656 2.57041,6.90798 0.96382,3.64141 1.87418,6.21183 2.73107,7.71125 1.49932,2.57039 3.53423,3.8556 6.10473,3.85562 0.74961,-2e-5 1.76707,-0.48197 3.05237,-1.44586 1.39221,-0.85682 2.08836,-1.60652 2.08846,-2.24911 m -30.20237,-2.08846 c -6e-5,-1.17812 -1.98142,-4.81954 -5.94408,-10.92426 0.10704,-0.85681 0.16059,-1.71361 0.16065,-2.57042 -6e-5,-2.99881 -0.64266,-5.46212 -1.92781,-7.38994 -1.60656,-2.2491 -3.80212,-3.37365 -6.58668,-3.37367 -0.96396,2e-5 -1.92787,0.53552 -2.89172,1.60651 -0.96395,1.07102 -1.44591,2.14202 -1.44586,3.21302 -5e-5,1.60651 1.17806,3.69497 3.53432,6.26538 2.46326,2.46332 3.69492,4.81953 3.69497,7.06864 -5e-5,4.17692 0.1606,7.06863 0.48195,8.67515 0.85675,3.5343 2.67746,5.30146 5.46213,5.30148 3.64136,-2e-5 5.46207,-2.62398 5.46213,-7.87189 m -31.00562,-16.38639 c -3e-5,-1.82071 -0.58908,-3.74852 -1.76716,-5.78344 -1.17813,-2.03489 -2.57044,-3.05235 -4.17692,-3.05236 -1.49943,10e-6 -3.15949,0.53551 -4.98018,1.60651 -0.96392,0.53551 -1.60653,2.14202 -1.92781,4.81952 -0.42842,3.21302 -0.80327,5.19438 -1.12455,5.94409 -0.85683,1.7136 -3.69499,4.39112 -8.5145,8.03254 -4.17693,3.10591 -6.26539,5.62277 -6.26538,7.55059 -1e-5,4.1769 1.6065,6.26536 4.81952,6.26538 2.4633,-2e-5 5.30147,-2.03492 8.5145,-6.10473 0.42838,-0.53552 2.14199,-3.48078 5.14083,-8.8358 1.71358,-2.78462 4.23044,-5.03373 7.55059,-6.74733 0.85677,-0.4284 1.76712,-1.66006 2.73106,-3.69497 m 87.39408,-74.38136 c -1.92793,2.24919 -2.89183,4.12345 -2.89171,5.62278 -1.2e-4,2.46338 -0.16077,3.90924 -0.48196,4.33757 -1.71372,2.46338 -7.06875,3.90924 -16.06508,4.33758 -5.24803,6e-5 -10.49595,6e-5 -15.74379,0 l -17.6716,0 c -1.39237,6e-5 -3.21308,0.58911 -5.46213,1.76716 -2.14207,1.07106 -3.26663,1.60657 -3.37367,1.60651 -1.17816,-0.74965 -5.08733,-1.9813 -11.72751,-3.69497 -4.92667,-1.28515 -7.38998,-2.99875 -7.38994,-5.14083 -4e-5,-1.07094 1.01741,-2.19549 3.05237,-3.37367 2.03486,-1.28513 3.64137,-1.92774 4.81952,-1.92781 6.53308,7e-5 12.04876,-0.91028 16.54704,-2.73107 0.32124,8e-5 1.44579,0.58913 3.37367,1.76716 2.03484,1.07108 3.53425,1.60659 4.49823,1.60651 3.10584,8e-5 7.65761,-0.0535 13.65532,-0.16065 1.49932,8e-5 3.64133,0.16073 6.42604,0.48195 2.78451,0.32138 4.87297,0.48203 6.26538,0.48196 1.28511,7e-5 3.32002,-0.58898 6.10473,-1.76716 2.78451,-1.17803 4.17682,-2.24904 4.17693,-3.21302 -1.1e-4,-1.28513 -1.28532,-2.51678 -3.85562,-3.69497 -2.57052,-1.28512 -4.60543,-1.92773 -6.10474,-1.92781 l -26.34674,0.48195 c -0.21428,8e-5 -1.28528,0.53559 -3.21302,1.60651 -1.82078,1.07109 -3.42729,1.60659 -4.81953,1.60651 -0.42846,8e-5 -1.44592,-0.42832 -3.05236,-1.28521 -1.60657,-0.85672 -2.89178,-1.28512 -3.85562,-1.28521 -0.96397,9e-5 -2.30272,-0.10701 -4.01628,-0.3213 -1.60656,-0.32122 -2.78466,-0.48187 -3.53431,-0.48195 -4.06987,8e-5 -6.47964,-0.0535 -7.22929,-0.16065 -2.99886,-0.53542 -4.49827,-2.03483 -4.49823,-4.49823 -4e-5,-2.14192 2.30262,-4.33748 6.90799,-6.58668 4.17687,-2.03482 7.55054,-3.05227 10.121,-3.05237 0.96385,10e-5 2.46326,0.37495 4.49823,1.12456 2.14195,0.7498 3.6949,1.12465 4.65887,1.12455 0.96384,10e-5 2.1955,0.0536 3.69497,0.16065 1.60644,10e-5 2.8381,10e-5 3.69497,0 1.49934,10e-5 3.74845,-0.26765 6.74734,-0.80325 3.10584,-0.5354 5.4085,-0.80316 6.90799,-0.80325 19.278,9e-5 29.55964,1.98145 30.84497,5.94408 0.53538,2.1421 1.12444,4.33766 1.76716,6.58668 0.64248,2.2492 1.49928,4.33766 2.57041,6.26539"
         id="path3098"
         inkscape:connector-curvature="0"
         style="fill:#ffffff" />
    </g>
    <text
       inkscape:export-ydpi="90"
       inkscape:export-xdpi="90"
       inkscape:export-filename="/home/rafa/Escriptori/torios/g3096.png"
       xml:space="preserve"
       style="font-size:87.08556366px;font-style:normal;font-variant:normal;font-weight:normal;font-stretch:normal;text-align:start;line-height:125%;letter-spacing:0px;word-spacing:0px;writing-mode:lr-tb;text-anchor:start;fill:#4d4d4d;fill-opacity:1;stroke:none;font-family:Sans;-inkscape-font-specification:Sans"
       x="1000.5914"
       y="846.99072"
       id="text3043"
       sodipodi:linespacing="125%"><tspan
         sodipodi:role="line"
         id="tspan3045"
         x="1000.5914"
         y="846.99072"
         style="font-size:87.08556366px;font-style:normal;font-variant:normal;font-weight:normal;font-stretch:normal;text-align:start;line-height:125%;writing-mode:lr-tb;text-anchor:start;font-family:NanumGothic;-inkscape-font-specification:NanumGothic"><tspan
   style="font-weight:bold"
   id="tspan3047">Tori</tspan>OS</tspan></text>
    <path
       inkscape:export-ydpi="90"
       inkscape:export-xdpi="90"
       inkscape:export-filename="/home/rafa/Escriptori/torios/g3096.png"
       sodipodi:type="arc"
       style="color:#000000;fill:#cc0000;fill-opacity:1;fill-rule:nonzero;stroke:none;stroke-width:1;marker:none;visibility:visible;display:inline;overflow:visible;enable-background:accumulate"
       id="path3049"
       sodipodi:cx="195.71428"
       sodipodi:cy="660.93359"
       sodipodi:rx="72.85714"
       sodipodi:ry="72.85714"
       d="m 268.57142,660.93359 c 0,40.23789 -32.61925,72.85714 -72.85714,72.85714 -40.23789,0 -72.85714,-32.61925 -72.85714,-72.85714 0,-40.23788 32.61925,-72.85714 72.85714,-72.85714 40.23789,0 72.85714,32.61926 72.85714,72.85714 z"
       transform="matrix(0.88588666,0,0,0.88588666,962.86748,125.38569)" />
    <g
       inkscape:export-ydpi="90"
       inkscape:export-xdpi="90"
       inkscape:export-filename="/home/rafa/Escriptori/torios/g3096.png"
       style="font-size:164.50650024px;font-style:normal;font-variant:normal;font-weight:100;font-stretch:normal;text-align:start;line-height:125%;letter-spacing:0px;word-spacing:0px;writing-mode:lr-tb;text-anchor:start;fill:#ffffff;fill-opacity:1;stroke:none;font-family:'魚石行書';-inkscape-font-specification:'魚石行書 Thin'"
       id="g3051"
       transform="matrix(0.26357864,0,0,0.26357864,781.17585,653.65389)">
      <text
         xml:space="preserve"
         style="font-size:354.71298218px;font-style:normal;font-weight:bold;line-height:125%;letter-spacing:0px;word-spacing:0px;fill:#ffffff;fill-opacity:1;stroke:none;font-family:Sans;-inkscape-font-specification:Sans Bold"
         x="1187.444"
         y="324.95407"
         id="text3067"
         sodipodi:linespacing="125%"><tspan
           sodipodi:role="line"
           id="tspan3069"
           x="1187.444"
           y="324.95407">鳥</tspan></text>
    </g>
    <path
       inkscape:export-ydpi="90"
       inkscape:export-xdpi="90"
       inkscape:export-filename="/home/rafa/Escriptori/torios/g3096.png"
       transform="matrix(1.5315596,0,0,1.5315596,1163.0781,-260.38883)"
       d="m 268.57142,660.93359 c 0,40.23789 -32.61925,72.85714 -72.85714,72.85714 -40.23789,0 -72.85714,-32.61925 -72.85714,-72.85714 0,-40.23788 32.61925,-72.85714 72.85714,-72.85714 40.23789,0 72.85714,32.61926 72.85714,72.85714 z"
       sodipodi:ry="72.85714"
       sodipodi:rx="72.85714"
       sodipodi:cy="660.93359"
       sodipodi:cx="195.71428"
       id="path3055"
       style="color:#000000;fill:#cc0000;fill-opacity:1;fill-rule:nonzero;stroke:none;stroke-width:1;marker:none;visibility:visible;display:inline;overflow:visible;enable-background:accumulate"
       sodipodi:type="arc" />
    <text
       inkscape:export-ydpi="90"
       inkscape:export-xdpi="90"
       inkscape:export-filename="/home/rafa/Escriptori/torios/g3096.png"
       sodipodi:linespacing="125%"
       id="text3061"
       y="816.75403"
       x="1378.5176"
       style="font-size:56.10399246px;font-style:normal;font-variant:normal;font-weight:normal;font-stretch:normal;text-align:start;line-height:125%;letter-spacing:0px;word-spacing:0px;writing-mode:lr-tb;text-anchor:start;fill:#cccccc;fill-opacity:1;stroke:none;font-family:Sans;-inkscape-font-specification:Sans"
       xml:space="preserve"><tspan
         style="font-size:56.10399246px;font-style:normal;font-variant:normal;font-weight:normal;font-stretch:normal;text-align:start;line-height:125%;writing-mode:lr-tb;text-anchor:start;fill:#cccccc;font-family:NanumGothic;-inkscape-font-specification:NanumGothic"
         y="816.75403"
         x="1378.5176"
         id="tspan3063"
         sodipodi:role="line"><tspan
   id="tspan3065"
   style="font-weight:bold;fill:#cccccc">Tori</tspan>OS</tspan></text>
    <g
       transform="matrix(0.3320681,0,0,0.3320681,1014.8714,641.82989)"
       id="g3071"
       style="font-size:164.50650024px;font-style:normal;font-variant:normal;font-weight:100;font-stretch:normal;text-align:start;line-height:125%;letter-spacing:0px;word-spacing:0px;writing-mode:lr-tb;text-anchor:start;fill:#ffffff;fill-opacity:1;stroke:none;font-family:'魚石行書';-inkscape-font-specification:'魚石行書 Thin'"
       inkscape:export-filename="/home/rafa/Escriptori/torios/g3096.png"
       inkscape:export-xdpi="90"
       inkscape:export-ydpi="90">
      <text
         sodipodi:linespacing="125%"
         id="text3073"
         y="324.95407"
         x="1187.444"
         style="font-size:354.71298218px;font-style:normal;font-weight:bold;line-height:125%;letter-spacing:0px;word-spacing:0px;fill:#ffffff;fill-opacity:1;stroke:none;font-family:Sans;-inkscape-font-specification:Sans Bold"
         xml:space="preserve"><tspan
           y="324.95407"
           x="1187.444"
           id="tspan3075"
           sodipodi:role="line">鳥</tspan></text>
    </g>
    <text
       xml:space="preserve"
       style="font-size:23.64775658px;font-style:normal;font-weight:bold;line-height:125%;letter-spacing:0px;word-spacing:0px;fill:#000000;fill-opacity:1;stroke:none;font-family:Sans;-inkscape-font-specification:Sans Bold"
       x="1771.6023"
       y="441.79468"
       id="text3859"
       sodipodi:linespacing="125%"
       inkscape:export-filename="/home/rafa/Escriptori/torios/g3096.png"
       inkscape:export-xdpi="90"
       inkscape:export-ydpi="90"><tspan
         sodipodi:role="line"
         id="tspan3861"
         x="1771.6023"
         y="441.79468"
         style="font-weight:bold;text-align:center;text-anchor:middle;-inkscape-font-specification:Sans">visually</tspan><tspan
         sodipodi:role="line"
         x="1771.6023"
         y="471.35437"
         id="tspan3865"
         style="font-weight:bold;text-align:center;text-anchor:middle;-inkscape-font-specification:Sans">&quot;wasted&quot;</tspan><tspan
         sodipodi:role="line"
         x="1771.6023"
         y="500.91406"
         id="tspan3863"
         style="font-weight:bold;text-align:center;text-anchor:middle;-inkscape-font-specification:Sans">space</tspan></text>
    <path
       sodipodi:nodetypes="cc"
       style="color:#000000;fill:none;stroke:#000000;stroke-width:2;stroke-miterlimit:4;stroke-opacity:1;stroke-dasharray:none;stroke-dashoffset:0.2;marker:none;marker-start:url(#DotL);visibility:visible;display:inline;overflow:visible;enable-background:accumulate"
       d="m 1400.9635,408.89505 297.1463,55.15433"
       id="path3867"
       inkscape:connector-curvature="0"
       inkscape:export-filename="/home/rafa/Escriptori/torios/g3096.png"
       inkscape:export-xdpi="90"
       inkscape:export-ydpi="90" />
    <path
       inkscape:connector-curvature="0"
       id="path4313"
       d="m 1534.7665,408.89505 163.3433,42.4264"
       style="color:#000000;fill:none;stroke:#000000;stroke-width:2;stroke-miterlimit:4;stroke-opacity:1;stroke-dasharray:none;stroke-dashoffset:0.2;marker:none;marker-start:url(#DotL);visibility:visible;display:inline;overflow:visible;enable-background:accumulate"
       sodipodi:nodetypes="cc"
       inkscape:export-filename="/home/rafa/Escriptori/torios/g3096.png"
       inkscape:export-xdpi="90"
       inkscape:export-ydpi="90" />
    <path
       sodipodi:nodetypes="cc"
       style="color:#000000;fill:none;stroke:#000000;stroke-width:2;stroke-miterlimit:4;stroke-opacity:1;stroke-dasharray:none;stroke-dashoffset:0.2;marker:none;marker-start:url(#DotL);visibility:visible;display:inline;overflow:visible;enable-background:accumulate"
       d="m 1466.8842,540.41691 230.6398,-64.2254"
       id="path4315"
       inkscape:connector-curvature="0"
       inkscape:export-filename="/home/rafa/Escriptori/torios/g3096.png"
       inkscape:export-xdpi="90"
       inkscape:export-ydpi="90" />
    <g
       id="g4419"
       inkscape:export-filename="/home/rafa/Escriptori/torios/g3096.png"
       inkscape:export-xdpi="90"
       inkscape:export-ydpi="90">
      <path
         style="color:#000000;fill:none;stroke:#efefef;stroke-width:1.5;stroke-miterlimit:4;stroke-opacity:1;stroke-dasharray:1.5, 1.5;stroke-dashoffset:0.3;marker:none;visibility:visible;display:inline;overflow:visible;enable-background:accumulate"
         d="m 1510.3802,470.67832 0,-149.02244"
         id="path4377"
         inkscape:connector-curvature="0"
         sodipodi:nodetypes="cc" />
      <path
         inkscape:connector-curvature="0"
         id="path4379"
         d="m 1339.0354,338.18437 256.6652,0"
         style="color:#000000;fill:none;stroke:#efefef;stroke-width:1.5;stroke-miterlimit:4;stroke-opacity:1;stroke-dasharray:1.5, 1.5;stroke-dashoffset:0.3;marker:none;visibility:visible;display:inline;overflow:visible;enable-background:accumulate"
         sodipodi:nodetypes="cc" />
      <path
         sodipodi:nodetypes="cc"
         inkscape:connector-curvature="0"
         id="path4381"
         d="m 1435.4269,470.67832 0,-149.02244"
         style="color:#000000;fill:none;stroke:#efefef;stroke-width:1.5;stroke-miterlimit:4;stroke-opacity:1;stroke-dasharray:1.5, 1.5;stroke-dashoffset:0.3;marker:none;visibility:visible;display:inline;overflow:visible;enable-background:accumulate" />
      <path
         sodipodi:nodetypes="cc"
         style="color:#000000;fill:none;stroke:#efefef;stroke-width:1.5;stroke-miterlimit:4;stroke-opacity:1;stroke-dasharray:1.5, 1.5;stroke-dashoffset:0.3;marker:none;visibility:visible;display:inline;overflow:visible;enable-background:accumulate"
         d="m 1339.0354,522.03213 256.6652,0"
         id="path4383"
         inkscape:connector-curvature="0" />
      <path
         inkscape:connector-curvature="0"
         id="path4385"
         d="m 1339.0354,468.29201 256.6652,0"
         style="color:#000000;fill:none;stroke:#efefef;stroke-width:1.5;stroke-miterlimit:4;stroke-opacity:1;stroke-dasharray:1.5, 1.5;stroke-dashoffset:0.3;marker:none;visibility:visible;display:inline;overflow:visible;enable-background:accumulate"
         sodipodi:nodetypes="cc" />
      <path
         sodipodi:nodetypes="cc"
         style="color:#000000;fill:none;stroke:#efefef;stroke-width:1.5;stroke-miterlimit:4;stroke-opacity:1;stroke-dasharray:1.5, 1.5;stroke-dashoffset:0.3;marker:none;visibility:visible;display:inline;overflow:visible;enable-background:accumulate"
         d="m 1339.0354,565.87275 256.6652,0"
         id="path4387"
         inkscape:connector-curvature="0" />
      <path
         inkscape:connector-curvature="0"
         id="path4389"
         d="m 1351.9883,582.48248 0,-256.6652"
         style="color:#000000;fill:none;stroke:#efefef;stroke-width:1.5;stroke-miterlimit:4;stroke-opacity:1;stroke-dasharray:1.5, 1.5;stroke-dashoffset:0.3;marker:none;visibility:visible;display:inline;overflow:visible;enable-background:accumulate"
         sodipodi:nodetypes="cc" />
      <path
         sodipodi:nodetypes="cc"
         style="color:#000000;fill:none;stroke:#efefef;stroke-width:1.5;stroke-miterlimit:4;stroke-opacity:1;stroke-dasharray:1.5, 1.5;stroke-dashoffset:0.3;marker:none;visibility:visible;display:inline;overflow:visible;enable-background:accumulate"
         d="m 1579.6767,582.48248 0,-256.6652"
         id="path4391"
         inkscape:connector-curvature="0" />
    </g>
    <g
       transform="matrix(0.22302808,0,0,0.22302808,-97.92813,243.07055)"
       id="g3097"
       style="font-size:164.50650024px;font-style:normal;font-variant:normal;font-weight:100;font-stretch:normal;text-align:start;line-height:125%;letter-spacing:0px;word-spacing:0px;writing-mode:lr-tb;text-anchor:start;fill:#ffffff;fill-opacity:1;stroke:none;font-family:'魚石行書';-inkscape-font-specification:'魚石行書 Thin'"
       inkscape:export-filename="/home/rafa/Escriptori/torios/g3096.png"
       inkscape:export-xdpi="90"
       inkscape:export-ydpi="90">
      <text
         sodipodi:linespacing="125%"
         id="text3099"
         y="324.95407"
         x="1187.444"
         style="font-size:354.71298218px;font-style:normal;font-weight:bold;line-height:125%;letter-spacing:0px;word-spacing:0px;fill:#ffffff;fill-opacity:1;stroke:none;font-family:Sans;-inkscape-font-specification:Sans Bold"
         xml:space="preserve"><tspan
           y="324.95407"
           x="1187.444"
           id="tspan3101"
           sodipodi:role="line" /></text>
    </g>
    <path
       style="font-size:164.50650024px;font-style:normal;font-variant:normal;font-weight:100;font-stretch:normal;text-align:start;line-height:125%;letter-spacing:0px;word-spacing:0px;writing-mode:lr-tb;text-anchor:start;fill:#ffffff;fill-opacity:1;stroke:none;font-family:'魚石行書';-inkscape-font-specification:'魚石行書 Thin'"
       inkscape:connector-curvature="0"
       id="path3062-9"
       d="m 183.10193,269.83665 c 3.5741,-2.36515 7.30588,-5.12458 11.19539,-8.27826 3.94199,-3.15356 6.4649,-5.80786 7.56869,-7.96292 1.26142,0.47313 2.18122,1.05129 2.75943,1.7345 0.63068,0.6308 0.94605,1.31408 0.94608,2.04985 -3e-5,2.52298 -2.81202,5.22984 -8.43594,8.12059 -5.57143,2.8909 -10.24931,4.3363 -14.03365,4.33624 m 16.24118,-1.26145 c 2.10239,-2.10235 4.12596,-3.8894 6.07073,-5.36117 1.99725,-1.52418 4.28365,-2.2863 6.85914,-2.28638 1.73446,8e-5 3.28498,0.47312 4.6516,1.41914 0.52555,0.52568 0.78837,1.47176 0.78841,2.83827 -4e-5,2.89088 -1.18266,7.09572 -3.54783,12.61449 -2.36527,5.5189 -3.96836,8.69881 -4.80928,9.53972 4.15222,-1.31395 7.62121,-2.31261 10.40698,-2.99594 2.78564,-0.7358 5.41365,-1.10372 7.88406,-1.10377 1.05114,5e-5 2.02351,0.0789 2.91711,0.23653 0.94601,0.15773 1.81325,0.63077 2.60172,1.41913 -0.84103,0.68333 -1.68199,1.34033 -2.52288,1.97101 -6.78037,0.94614 -13.03506,1.94478 -18.76409,2.99595 -1.68198,0.42053 -4.1786,1.26149 -7.48986,2.52291 -3.31135,1.26148 -5.80797,2.10245 -7.48986,2.5229 l 0,2.44407 c 5.83416,-2.15495 10.72228,-3.73178 14.66436,-4.73046 3.94198,-0.9986 8.22566,-1.49793 12.85103,-1.49796 2.89075,3e-5 5.07202,0.73588 6.54377,2.20753 1.47163,1.47174 2.20748,3.2325 2.20753,5.28233 -5e-5,5.25606 -2.28643,11.16912 -6.85912,17.73914 -4.52027,6.51751 -8.90906,9.77625 -13.1664,9.77625 -1.15637,0 -2.47038,-0.3942 -3.94204,-1.18262 -1.47173,-0.78839 -3.4953,-2.04984 -6.07072,-3.78435 5.93928,10e-6 11.09021,-2.41776 15.45277,-7.25334 4.36247,-4.83554 7.14816,-9.09292 8.35712,-12.77218 0.31529,-1.36655 -0.55196,-2.44403 -2.60175,-3.23246 -2.04992,-0.78839 -4.80933,-1.18259 -8.27827,-1.18262 -2.94345,3e-5 -5.9131,0.26283 -8.90899,0.78841 -2.99599,0.47307 -5.33493,1.02495 -7.01683,1.65566 -1.62941,0.57819 -2.62805,0.89355 -2.99594,0.94608 -0.36796,0.0527 -0.7096,0.0788 -1.02492,0.0788 -1.15637,2e-5 -2.15503,-0.31533 -2.99595,-0.9461 -0.841,-0.68325 -1.26148,-1.31397 -1.26146,-1.89218 0.73582,-4.04711 1.23514,-7.06934 1.49797,-9.06666 0.31534,-1.99727 0.47301,-3.73176 0.47306,-5.20349 -5e-5,-1.83956 -0.15772,-3.67919 -0.47306,-5.51885 -0.26283,-1.89212 -0.76215,-4.04709 -1.49797,-6.46494 2.04982,6e-5 3.39012,0.78848 4.02087,2.36523 0.68326,1.57687 1.0249,5.38749 1.02494,11.4319 0.99861,-0.52557 2.49657,-1.13001 4.49391,-1.81334 2.04981,-0.68324 3.99455,-1.34024 5.83421,-1.97101 l 0.47305,-3.62669 c -1.36662,7e-5 -2.68062,0.2366 -3.94204,0.70958 -1.20893,0.4731 -2.44409,0.94614 -3.70551,1.41913 -0.99869,5e-5 -2.0499,-0.76208 -3.15362,-2.28638 3.41639,-1.68188 5.7816,-2.70681 7.09566,-3.07479 1.31397,-0.42042 2.70682,-0.63067 4.17855,-0.63072 l 1.18261,-6.30726 c -0.99868,7e-5 -2.47038,0.13148 -4.41508,0.39421 -1.94477,0.26286 -3.81066,0.55195 -5.59769,0.86725 m -2.44405,35.08409 c 1.57678,-0.78837 3.17987,-1.4191 4.80928,-1.89217 1.6819,-0.47302 3.2587,-0.70953 4.73044,-0.70958 1.89212,5e-5 3.36382,0.55193 4.41507,1.65567 1.10372,1.05123 1.6556,1.97104 1.65566,2.75942 -6e-5,1.10379 -1.36662,1.83964 -4.09972,2.20753 -2.73318,0.31539 -4.83559,0.57819 -6.30725,0.78841 -1.47172,0.21026 -2.52293,0.34166 -3.15363,0.3942 -0.63076,0.0526 -1.2352,0.0788 -1.81333,0.0788 -2.4178,2e-5 -4.59907,-0.39418 -6.54378,-1.18261 -1.94476,-0.84094 -3.17993,-1.78702 -3.70551,-2.83826 0.57815,-0.26277 1.23514,-0.42046 1.97102,-0.47304 0.78837,-0.1052 1.81331,-0.15766 3.07478,-0.15769 1.20886,3e-5 2.18123,-0.0263 2.91711,-0.0788 0.78837,-0.1052 1.47166,-0.28904 2.04986,-0.55188 m -25.07134,4.96698 c 3.41642,10e-6 6.30724,-0.13139 8.67248,-0.39421 2.3652,-0.31534 4.07341,-0.60442 5.12463,-0.86725 -1e-5,1.41916 -0.8147,2.62806 -2.44405,3.62667 -1.62939,0.94612 -3.46901,1.41916 -5.51885,1.41915 -1.47171,10e-6 -2.75943,-0.31536 -3.86319,-0.94609 -1.05121,-0.63072 -1.70823,-1.5768 -1.97102,-2.83827 m 35.24179,-23.73104 -10.17045,2.44405 0,5.04582 10.01276,-3.78436 0.15769,-3.70551" />
    <path
       style="font-size:164.50650024px;font-style:normal;font-variant:normal;font-weight:100;font-stretch:normal;text-align:start;line-height:125%;letter-spacing:0px;word-spacing:0px;writing-mode:lr-tb;text-anchor:start;fill:#e6e6e6;fill-opacity:1;stroke:none;font-family:'魚石行書';-inkscape-font-specification:'魚石行書 Thin'"
       inkscape:connector-curvature="0"
       id="path3062-9-7"
       d="m 222.90844,188.14535 c 19.0465,-12.60398 38.93336,-27.30906 59.66062,-44.11519 21.00704,-16.80542 34.45171,-30.95031 40.3339,-42.43469 6.72211,2.52132 11.62377,5.60237 14.70509,9.24322 3.36095,3.36154 5.04154,7.00278 5.04171,10.92373 -1.7e-4,13.44505 -14.98536,27.87003 -44.95547,43.27498 -29.69039,15.40565 -54.61898,23.10827 -74.78585,23.10795 m 86.54986,-6.72229 c 11.20371,-11.20351 21.98737,-20.72683 32.35119,-28.56989 10.64344,-8.12245 22.82765,-12.18383 36.55262,-12.18423 9.24296,4e-4 17.50577,2.52125 24.78859,7.56266 2.80062,2.80134 4.20117,7.84306 4.20143,15.12523 -2.6e-4,15.40563 -6.30247,37.81336 -18.90651,67.22315 -12.60465,29.41041 -21.14755,46.35628 -25.6289,50.83753 22.12737,-7.00211 40.61375,-12.324 55.4592,-15.9655 14.84482,-3.92108 28.84959,-5.88177 42.01449,-5.882 5.60158,2.3e-4 10.78335,0.42072 15.54536,1.26042 5.04133,0.84054 9.66292,3.3614 13.86473,7.56265 -4.48191,3.64144 -8.96344,7.14271 -13.44458,10.5036 -36.13279,5.04196 -69.46431,10.36378 -99.99454,15.9655 -8.96331,2.24103 -22.26792,6.72256 -39.91375,13.44467 -17.6463,6.72247 -30.95091,11.20409 -39.91376,13.44463 l 0,13.02453 c 31.09048,-11.4838 57.13945,-19.88674 78.14694,-25.20874 21.00697,-5.32163 43.83484,-7.98253 68.48364,-7.98273 15.40495,2e-4 27.02898,3.92154 34.87203,11.76402 7.84237,7.84294 11.7637,17.22615 11.76402,28.14975 -3.2e-4,28.00974 -12.18454,59.52064 -36.55254,94.53259 -24.08868,34.73199 -47.47674,52.09799 -70.16428,52.09799 -6.16238,0 -13.16476,-2.10071 -21.00725,-6.30221 -7.84293,-4.20138 -18.62661,-10.92367 -32.3511,-20.16696 31.65061,7e-5 59.10011,-12.88434 82.34837,-38.65333 23.24774,-25.7688 38.09282,-48.45656 44.53542,-68.06344 1.68017,-7.28241 -2.9414,-13.02437 -13.86481,-17.22593 -10.92414,-4.20132 -25.62914,-6.30203 -44.11525,-6.30224 -15.68568,2.1e-4 -31.51109,1.40068 -47.47634,4.20152 -15.96573,2.52099 -28.43005,5.46199 -37.39292,8.823 -8.68322,3.08124 -14.00503,4.76183 -15.96551,5.04172 -1.96087,0.28049 -3.78149,0.42009 -5.46186,0.42009 -6.1623,1.2e-4 -11.48419,-1.68039 -15.96552,-5.04173 -4.48171,-3.64112 -6.72249,-7.00225 -6.72236,-10.0835 3.92122,-21.56723 6.58212,-37.67281 7.98279,-48.31663 1.68038,-10.64351 2.52066,-19.88667 2.52086,-27.7296 -2e-4,-9.80309 -0.84048,-19.6065 -2.52086,-29.41017 -1.40067,-10.0832 -4.06157,-21.56711 -7.98279,-34.4519 10.9236,3.2e-4 18.06611,4.20183 21.42738,12.60436 3.64111,8.4032 5.46175,28.7102 5.46194,60.92107 5.32161,-2.80077 13.30435,-6.02185 23.94824,-9.66336 10.92353,-3.64099 21.28714,-7.14218 31.09074,-10.5036 l 2.52087,-19.32671 c -7.28275,3.1e-4 -14.28515,1.26073 -21.00726,3.78135 -6.44243,2.52112 -13.0247,5.04197 -19.74679,7.56257 -5.32208,2.7e-4 -10.92399,-4.06112 -16.8058,-12.18421 18.20608,-8.9628 30.81039,-14.42466 37.81304,-16.38568 7.00221,-2.24042 14.42472,-3.3608 22.26767,-3.36113 l 6.30214,-33.61161 c -5.322,3.2e-4 -13.16475,0.70063 -23.52808,2.10072 -10.3638,1.40087 -20.30721,2.94139 -29.83034,4.62164 m -13.02443,186.9645 c 8.40267,-4.20131 16.94565,-7.56247 25.62881,-10.08346 8.96294,-2.52072 17.3658,-3.78116 25.20874,-3.78135 10.08319,1.9e-4 17.92592,2.94121 23.5281,8.82309 5.88176,5.60203 8.82275,10.50371 8.823,14.70508 -2.5e-4,5.88214 -7.28274,9.80346 -21.84752,11.76401 -14.56523,1.68071 -25.76905,3.08118 -33.61162,4.20143 -7.84285,1.12051 -13.44479,1.82076 -16.80579,2.10072 -3.36134,0.28049 -6.58243,0.42008 -9.6633,0.42008 -12.8846,1.4e-4 -24.50862,-2.10058 -34.87203,-6.30213 -10.36373,-4.48141 -16.946,-9.52315 -19.74681,-15.12526 3.08093,-1.40026 6.5821,-2.24061 10.50359,-2.52085 4.2013,-0.56032 9.66323,-0.84015 16.38565,-0.84027 6.44209,1.2e-4 11.62385,-0.14033 15.54537,-0.4201 4.20132,-0.56032 7.84256,-1.54032 10.92381,-2.94099 m -133.60615,26.46923 c 18.2062,6e-5 33.61154,-0.70018 46.21597,-2.10078 12.60426,-1.68045 21.70735,-3.22098 27.3094,-4.62159 -6e-5,7.56271 -4.34162,14.00498 -13.02445,19.32667 -8.6831,5.04185 -18.48651,7.56271 -29.41017,7.56265 -7.8428,6e-5 -14.70515,-1.68051 -20.5871,-5.04172 -5.60197,-3.36108 -9.10324,-8.40281 -10.50365,-15.12523 m 187.80485,-126.46364 -54.1987,13.02443 0,26.88934 53.35841,-20.16696 0.84029,-19.74681" />
    <text
       inkscape:export-ydpi="90"
       inkscape:export-xdpi="90"
       inkscape:export-filename="/home/rafa/Escriptori/torios/g3096.png"
       sodipodi:linespacing="125%"
       id="text3091"
       y="318.97128"
       x="258.2821"
       style="font-size:87.08556366px;font-style:normal;font-variant:normal;font-weight:normal;font-stretch:normal;text-align:start;line-height:125%;letter-spacing:0px;word-spacing:0px;writing-mode:lr-tb;text-anchor:start;fill:#000000;fill-opacity:1;stroke:none;font-family:Sans;-inkscape-font-specification:Sans"
       xml:space="preserve"><tspan
         style="font-size:87.08556366px;font-style:normal;font-variant:normal;font-weight:normal;font-stretch:normal;text-align:start;line-height:125%;writing-mode:lr-tb;text-anchor:start;fill:#000000;fill-opacity:1;font-family:NanumGothic;-inkscape-font-specification:NanumGothic"
         y="318.97128"
         x="258.2821"
         id="tspan3093"
         sodipodi:role="line"><tspan
   id="tspan3095"
   style="font-weight:bold;fill:#000000;fill-opacity:1">Tori</tspan>OS</tspan></text>
    <text
       xml:space="preserve"
       style="font-size:23.19051361px;font-style:normal;font-variant:normal;font-weight:normal;font-stretch:normal;text-align:start;line-height:125%;letter-spacing:0px;word-spacing:0px;writing-mode:lr-tb;text-anchor:start;fill:#666666;fill-opacity:1;stroke:none;font-family:Sans;-inkscape-font-specification:Sans"
       x="316.79132"
       y="353.80914"
       id="text3128"
       sodipodi:linespacing="125%"
       inkscape:export-filename="/home/rafa/Escriptori/torios/g3096.png"
       inkscape:export-xdpi="90"
       inkscape:export-ydpi="90"><tspan
         sodipodi:role="line"
         id="tspan3130"
         x="316.79132"
         y="353.80914"
         style="font-size:24px;font-style:normal;font-variant:normal;font-weight:normal;font-stretch:normal;text-align:start;line-height:125%;writing-mode:lr-tb;text-anchor:start;fill:#666666;font-family:NanumGothic;-inkscape-font-specification:NanumGothic"><tspan
   style="font-size:24px;font-weight:bold;fill:#666666"
   id="tspan3134">Free</tspan> your desktop</tspan></text>
  </g>
</svg>
